<?xml version="1.0" encoding="utf-8"?>
<!-- Generator: Adobe Illustrator 22.0.0, SVG Export Plug-In . SVG Version: 6.00 Build 0)  -->
<svg version="1.1" xmlns="http://www.w3.org/2000/svg" xmlns:xlink="http://www.w3.org/1999/xlink" x="0px" y="0px"
	 viewBox="0 0 100 100" style="enable-background:new 0 0 100 100;" xml:space="preserve">
<style type="text/css">
	.st0{fill:#E1F4FD;}
	.st1{fill:#FFFFFF;}
	.st2{fill:#07294D;}
	.st3{fill:#A5CD39;}
	.st4{fill:#EC1C24;}
	.st5{fill:#F6921E;}
	.st6{fill:#00BFFF;}
	.st7{fill:#005AA9;}
	.st8{opacity:0.1;fill:#00BFFF;}
	.st9{opacity:0.15;fill:#A5CD39;}
	.st10{opacity:0.1;fill:#6E6D79;}
	.st11{opacity:0.1;fill:#39BBEC;}
	.st12{opacity:0.1;fill:#F6921E;}
	.st13{fill:#F3F3F4;}
	.st14{fill:#6E6D79;}
	.st15{fill:none;stroke:#6E6D79;stroke-width:0.8288;stroke-miterlimit:10;}
	.st16{opacity:0.1;fill:none;stroke:#231F20;stroke-miterlimit:10;}
	.st17{clip-path:url(#SVGID_2_);fill:#00BFFF;}
	.st18{opacity:0.1;fill:#E51D27;}
	.st19{opacity:0.1;fill:#EC1C24;}
	.st20{opacity:0.1;}
	.st21{fill:none;stroke:#00BFFF;stroke-width:1.0547;stroke-miterlimit:10;}
	.st22{opacity:0.2;}
	.st23{fill:none;stroke:#00BFFF;stroke-miterlimit:10;}
	.st24{fill:none;stroke:#6E6D79;stroke-miterlimit:10;}
	.st25{fill:#00A2E2;}
	.st26{opacity:0.6;}
	.st27{opacity:0.6;fill:#185BA8;}
	.st28{opacity:0.4;fill:#FFFFFF;}
	.st29{fill:none;stroke:#FFFFFF;stroke-width:0.4908;stroke-miterlimit:10;}
	.st30{clip-path:url(#SVGID_66_);fill:#00BFFF;}
	.st31{opacity:0.4;}
	.st32{clip-path:url(#SVGID_140_);fill:#00BFFF;}
	.st33{opacity:0.57;}
	.st34{opacity:0.2;fill:#EC1C24;}
	.st35{opacity:0.2;fill:#F6921E;}
	.st36{opacity:0.2;fill:#A5CD39;}
	.st37{opacity:0.2;fill:#005AA9;}
	.st38{fill:#F6921E;stroke:#F6921E;stroke-width:1.0389;stroke-miterlimit:10;}
	.st39{fill:#EC1C24;stroke:#EC1C24;stroke-width:1.0389;stroke-miterlimit:10;}
	.st40{fill:#A5CD39;stroke:#A5CD39;stroke-width:1.0389;stroke-miterlimit:10;}
	.st41{fill:#003D6B;}
	.st42{fill:none;stroke:#003D6B;stroke-width:2;stroke-miterlimit:10;}
	.st43{fill:#D10F1E;}
	.st44{fill:none;stroke:#005AA9;stroke-width:1.9302;stroke-miterlimit:10;}
</style>
<g id="Layer_1">
</g>
<g id="Layer_2">
	<g>
		<g>
			<polygon class="st44" points="23.2,21.6 23.2,21.6 23.2,80.6 76.8,80.6 76.8,21.6 			"/>
			<rect x="20.2" y="12.7" class="st7" width="59.5" height="10.3"/>
			<rect x="19" y="77.5" class="st7" width="62.1" height="10.3"/>
			<path class="st7" d="M18.7,10.1c-1.1,0-2,0.9-2,2v2.6H11c-1.4,0-2.5,1.1-2.5,2.5c0,1.4,1.1,2.5,2.5,2.5h5.8v2.6c0,1.1,0.9,2,2,2
				c1.1,0,2-0.9,2-2V12C20.7,11,19.8,10.1,18.7,10.1L18.7,10.1z"/>
			<path class="st7" d="M81.2,10.1c-1.1,0-2,0.9-2,2v10.3c0,1.1,0.9,2,2,2c1.1,0,2-0.9,2-2v-2.6h5.8c1.4,0,2.5-1.1,2.5-2.5
				c0-1.4-1.1-2.5-2.5-2.5h-5.8V12C83.2,11,82.3,10.1,81.2,10.1L81.2,10.1z"/>
			<path class="st7" d="M18.3,75.7c-1.1,0-2,0.9-2,2v2.6h-5.8c-1.4,0-2.5,1.1-2.5,2.5c0,1.4,1.1,2.5,2.5,2.5h5.8V88c0,1.1,0.9,2,2,2
				c1.1,0,2-0.9,2-2V77.7C20.2,76.6,19.4,75.7,18.3,75.7L18.3,75.7z"/>
			<path class="st7" d="M81.7,75.7c-1.1,0-2,0.9-2,2V88c0,1.1,0.9,2,2,2c1.1,0,2-0.9,2-2v-2.6h5.8c1.4,0,2.5-1.1,2.5-2.5
				c0-1.4-1.1-2.5-2.5-2.5h-5.8v-2.6C83.7,76.6,82.8,75.7,81.7,75.7L81.7,75.7z"/>
		</g>
		<rect x="23.2" y="22.2" class="st37" width="53" height="3.3"/>
		<path class="st3" d="M42.2,31.1h15.4c0.9,0,1.6,0.7,1.6,1.6v0c0,0.9-0.7,1.6-1.6,1.6H42.2c-0.9,0-1.6-0.7-1.6-1.6v0
			C40.6,31.8,41.3,31.1,42.2,31.1z"/>
		<path class="st7" d="M29.1,31.1h7.7c0.9,0,1.6,0.7,1.6,1.6v0c0,0.9-0.7,1.6-1.6,1.6h-7.7c-0.9,0-1.6-0.7-1.6-1.6v0
			C27.5,31.8,28.3,31.1,29.1,31.1z"/>
		<path class="st7" d="M49.9,70H29.1c-0.9,0-1.6-0.7-1.6-1.6l0,0c0-0.9,0.7-1.6,1.6-1.6h20.8c0.9,0,1.6,0.7,1.6,1.6l0,0
			C51.5,69.3,50.8,70,49.9,70z"/>
		<path class="st6" d="M70.5,70h-15c-0.9,0-1.6-0.7-1.6-1.6l0,0c0-0.9,0.7-1.6,1.6-1.6h15c0.9,0,1.6,0.7,1.6,1.6l0,0
			C72.1,69.3,71.4,70,70.5,70z"/>
		<path class="st5" d="M70.5,58.8H29.1c-0.9,0-1.6-0.7-1.6-1.6v0c0-0.9,0.7-1.6,1.6-1.6h41.4c0.9,0,1.6,0.7,1.6,1.6v0
			C72.1,58.1,71.4,58.8,70.5,58.8z"/>
		<path class="st4" d="M70.5,46.6H29.1c-0.9,0-1.6-0.7-1.6-1.6v0c0-0.9,0.7-1.6,1.6-1.6h41.4c0.9,0,1.6,0.7,1.6,1.6v0
			C72.1,45.9,71.4,46.6,70.5,46.6z"/>
		<path class="st5" d="M70.5,34.3h-7c-0.9,0-1.6-0.7-1.6-1.6v0c0-0.9,0.7-1.6,1.6-1.6h7c0.9,0,1.6,0.7,1.6,1.6v0
			C72.1,33.6,71.4,34.3,70.5,34.3z"/>
		<rect x="77.8" y="77.5" class="st41" width="2" height="10.1"/>
		<rect x="20.2" y="77.5" class="st41" width="2" height="10.1"/>
		<rect x="77.8" y="12.8" class="st41" width="2" height="10.1"/>
		<rect x="20.2" y="12.8" class="st41" width="2" height="10.1"/>
	</g>
</g>
</svg>
