<svg xmlns="http://www.w3.org/2000/svg" xmlns:xlink="http://www.w3.org/1999/xlink" version="1.1" id="Layer_1" x="0px" y="0px" viewBox="0 0 454.8 219.2" style="enable-background:new 0 0 454.8 219.2;" xml:space="preserve"><style type="text/css">
	.st0{fill:#005AA9;}
	.st1{opacity:0.15;fill:#00ACEE;}
	.st2{opacity:0.15;fill:#00A5E7;}
	.st3{opacity:0.6;fill:#065080;}
	.st4{fill:#FFFFFF;}
	.st5{fill:#FFB0B9;}
	.st6{fill:#D3A294;}
	.st7{fill:#DB98A6;}
	.st8{fill:#07294D;}
	.st9{fill:#0D3559;}
	.st10{fill:#041B30;}
	.st11{fill:#F6921E;}
	.st12{fill:#003759;}
	.st13{fill:#00BFFF;}
	.st14{fill:#1E1E1E;}
	.st15{fill:#A0BFD8;}
	.st16{fill:#D17D1F;}
	.st17{fill:#E4A97B;}
	.st18{fill:#210500;}
	.st19{fill:#B0C7D3;}
	.st20{fill:#EC1C24;}
	.st21{fill:#0A80B2;}
	.st22{fill:none;stroke:#07294D;stroke-width:1.5111;stroke-miterlimit:10;}
	.st23{fill:#86E0FC;}
	.st24{fill:#DEBEB0;}
	.st25{fill:#61B6CE;}
	.st26{fill:#C67B1B;}
	.st27{fill:#88A826;}
	.st28{fill:#A5CD39;}
	.st29{opacity:0.2;fill:#0098DA;}
	.st30{opacity:0.2;}
	.st31{opacity:0.2;fill:#00BFFF;}
	.st32{opacity:0.2;fill:none;stroke:#00BFFF;stroke-width:1.9226;stroke-miterlimit:10;}
	.st33{fill:#E2F3F7;}
	.st34{fill:#8FCFD5;}
	.st35{fill:#90A6B6;}
	.st36{opacity:0.3;fill:#FFFFFF;}
	.st37{fill:#75CCF4;stroke:#00BFFF;stroke-width:1.0372;stroke-miterlimit:10;}
	.st38{fill:none;stroke:#BCDB55;stroke-width:1.975;stroke-linecap:round;stroke-linejoin:round;stroke-miterlimit:10;}
	.st39{fill:none;stroke:#BCDB55;stroke-width:3.9499;stroke-linecap:round;stroke-linejoin:round;stroke-miterlimit:10;}
	.st40{opacity:0.45;fill:#40BBCF;}
	.st41{fill:#065080;}
	.st42{opacity:0.3;}
	.st43{clip-path:url(#SVGID_4_);}
	.st44{clip-path:url(#SVGID_4_);fill:#041B30;}
	.st45{fill:none;stroke:#07294D;stroke-width:5;stroke-miterlimit:10;}
	.st46{fill:#7A9DCC;}
	.st47{fill:#0D3B7F;}
	.st48{fill:#014375;}
	.st49{fill:#6EB2C4;}
	.st50{fill:#076B21;}
	.st51{fill:#CECECE;}
	.st52{fill:#E6493F;}
	.st53{fill:#BC1421;}
	.st54{fill:#8CB9E8;}
	.st55{fill:none;stroke:#07294D;stroke-width:2;stroke-miterlimit:10;}
	.st56{fill:#00ADEE;}
	.st57{opacity:0.5;}
	.st58{fill:#8FA3BA;}
	.st59{fill:#D9D9D9;}
	.st60{fill:#C4D6FF;}
	.st61{fill:#FFA7AB;}
	.st62{fill:none;stroke:#8FA3BA;stroke-width:2;stroke-linecap:round;stroke-miterlimit:10;}
	.st63{fill:#FFB38B;}
	.st64{fill:#00233F;}
	.st65{fill:#303030;}
	.st66{fill:#8F989F;}
	.st67{fill:#AEC7FF;}
	.st68{fill:#041D33;}
	.st69{fill:#5A5A5A;}
	.st70{fill:#C6CCCF;}
	.st71{fill:#B7BCC1;}
	.st72{fill:#757575;}
	.st73{fill:#002D56;}
	.st74{fill:none;stroke:#07294D;stroke-width:1.1974;stroke-miterlimit:10;}
	.st75{clip-path:url(#SVGID_6_);}
	.st76{opacity:0.4;fill:none;stroke:#51BDE0;stroke-width:1.6322;stroke-miterlimit:10;}
	.st77{opacity:0.4;fill:#51BDE0;}
	.st78{opacity:0.25;enable-background:new    ;}
	.st79{clip-path:url(#SVGID_8_);}
	.st80{clip-path:url(#SVGID_10_);fill:#1D9DDB;}
	.st81{opacity:0.13;fill:#51BDE0;}
	.st82{fill:none;}
	.st83{fill:none;stroke:#F6921E;stroke-width:3.2644;stroke-linecap:round;stroke-miterlimit:10;}
	.st84{fill:none;stroke:#FAC07C;stroke-width:1.6322;stroke-linecap:round;stroke-miterlimit:10;}
	.st85{fill:#2265EC;}
	.st86{fill:#FFB9C2;}
	.st87{fill:#FFA9B5;}
	.st88{fill:#A3B7CE;}
	.st89{opacity:0.75;fill:#B28061;}
	.st90{opacity:5.000000e-02;fill:#0098DA;}
	.st91{opacity:0.34;}
	.st92{fill:#0098DA;}
	.st93{clip-path:url(#SVGID_12_);}
	.st94{fill:none;stroke:#00ADEE;stroke-width:2;stroke-linecap:round;stroke-miterlimit:10;}
	.st95{fill:#FFFFFF;stroke:#005AA9;stroke-width:3.4625;stroke-miterlimit:10;}
	.st96{opacity:0.13;}
	.st97{fill:#51BDE0;}
	.st98{fill:#FFA0AC;}
	.st99{fill:#0A9FCD;}
	.st100{opacity:0.46;fill:#005AA9;}
	.st101{fill:#007EFF;}
	.st102{clip-path:url(#SVGID_14_);fill:#07294D;}
	.st103{fill:none;stroke:#1F80B9;stroke-width:3.9045;stroke-miterlimit:10;}
	.st104{fill:#033F6B;}
	.st105{fill:none;stroke:#008AFF;stroke-width:0.7809;stroke-linecap:round;stroke-miterlimit:10;}
	.st106{fill:#E4E4E4;}
	.st107{fill:none;stroke:#07294D;stroke-width:1.5618;stroke-miterlimit:10;}
	.st108{opacity:0.15;fill:#00A7E9;}
	.st109{fill:#065081;}
	.st110{fill:#00A7E9;}
	.st111{fill:#D57B1B;}
	.st112{clip-path:url(#SVGID_16_);}
	.st113{opacity:0.2;fill:#00A7E9;}
	.st114{clip-path:url(#SVGID_18_);}
	.st115{fill:none;stroke:#005AA9;stroke-width:1.6355;stroke-miterlimit:10;}
	.st116{fill:none;stroke:#005AA9;stroke-width:1.3005;stroke-miterlimit:10;}
	.st117{fill:none;stroke:#005AA9;stroke-width:2.304;stroke-miterlimit:10;}
	.st118{fill:none;stroke:#00BFFF;stroke-width:2.3739;stroke-linecap:round;stroke-miterlimit:10;}
	.st119{fill:none;stroke:#00BFFF;stroke-width:1.7716;stroke-linecap:round;stroke-miterlimit:10;}
	.st120{opacity:0.2;fill:none;stroke:#BFC7CF;stroke-width:2.6484;stroke-linecap:round;stroke-miterlimit:10;}
	.st121{clip-path:url(#SVGID_20_);fill:none;stroke:#005AA9;stroke-width:2.204;stroke-miterlimit:10;}
	.st122{fill:#034A7F;}
	.st123{fill:#8696AB;}
	.st124{fill:#A3B6D2;}
	.st125{fill:none;stroke:#86E0FC;stroke-width:0.9183;stroke-miterlimit:10;}
	.st126{fill:none;stroke:#86E0FC;stroke-width:0.9183;stroke-miterlimit:10;stroke-dasharray:3.6698,9.1744;}
	.st127{clip-path:url(#SVGID_18_);fill:#005AA9;}
	.st128{fill:none;stroke:#00BFFF;stroke-width:2.2541;stroke-linecap:round;stroke-miterlimit:10;}
	.st129{clip-path:url(#SVGID_22_);}
	.st130{fill:none;stroke:#E2F3F7;stroke-width:1.7091;stroke-miterlimit:10;}
	.st131{fill:none;stroke:#005AA9;stroke-width:1.7694;stroke-miterlimit:10;}
	.st132{fill:none;stroke:#E2F3F7;stroke-width:2.0686;stroke-miterlimit:10;}
	.st133{fill:none;stroke:#E2F3F7;stroke-width:1.7867;stroke-miterlimit:10;}
	.st134{opacity:0.1;fill:url(#SVGID_25_);}
	.st135{fill:#C41523;}
	.st136{fill:#E74A56;}
	.st137{fill:#0D9EC9;}
	.st138{fill:#42C7EF;}
	.st139{opacity:0.1;fill:url(#SVGID_26_);}
	.st140{fill:#87A42B;}
	.st141{fill:#B9D55F;}
	.st142{fill:#D57E1A;}
	.st143{fill:#E59149;}
	.st144{fill:#0091D3;}
	.st145{fill:#88A527;}
	.st146{fill:#B2A915;}
	.st147{fill:#103B63;}
	.st148{fill:#EED9C8;}
	.st149{opacity:0.34;fill:#0091D3;}
	.st150{fill:#84A426;}
	.st151{fill:none;stroke:#005AA9;stroke-width:2.0004;stroke-linecap:round;stroke-miterlimit:10;}
	.st152{opacity:0.1;fill:url(#SVGID_29_);}
	.st153{opacity:0.1;fill:url(#SVGID_30_);}
	.st154{opacity:0.1;fill:url(#SVGID_31_);}
	.st155{fill:#127BC3;}
	.st156{fill:#F2AA69;}
	.st157{clip-path:url(#SVGID_35_);fill:#00A760;}
	.st158{clip-path:url(#SVGID_35_);fill:#005AA9;}
	.st159{fill:#0068BB;}
	.st160{fill:#0059A0;}
	.st161{fill:#A6E35D;}
	.st162{fill:#809912;}
	.st163{fill:#027600;}
	.st164{fill:#80AD24;}
	.st165{opacity:0.1;fill:url(#SVGID_40_);}
	.st166{opacity:0.1;fill:url(#SVGID_41_);}
	.st167{opacity:0.1;fill:url(#SVGID_42_);}
	.st168{opacity:0.1;fill:url(#SVGID_43_);}
	.st169{opacity:0.1;fill:url(#SVGID_44_);}
	.st170{fill:none;stroke:#00BFFF;stroke-width:1.4665;stroke-linecap:round;stroke-miterlimit:10;}
	.st171{fill:#3786BF;}
	.st172{fill:#3F96E2;}
	.st173{fill:none;stroke:#005AA9;stroke-width:0.5883;stroke-miterlimit:10;}
	.st174{clip-path:url(#SVGID_46_);}
	.st175{fill:none;stroke:#005AA9;stroke-width:0.9448;stroke-miterlimit:10;}
	.st176{fill:none;stroke:#005AA9;stroke-width:0.7513;stroke-miterlimit:10;}
	.st177{opacity:0.26;}
	.st178{fill:#151515;}
	.st179{fill:#A7D7FF;}
	.st180{fill:none;stroke:#A7D7FF;stroke-width:0.7189;stroke-linecap:round;stroke-linejoin:round;stroke-miterlimit:10;}
	.st181{fill:none;stroke:#A7D7FF;stroke-width:1.0783;stroke-linecap:round;stroke-linejoin:round;stroke-miterlimit:10;}
	.st182{opacity:0.1286;}
	.st183{fill:#151515;stroke:#A7D7FF;stroke-width:0.7189;stroke-linecap:round;stroke-linejoin:round;stroke-miterlimit:10;}
	.st184{fill:#151515;stroke:#A7D7FF;stroke-width:1.0783;stroke-linecap:round;stroke-linejoin:round;stroke-miterlimit:10;}
	.st185{fill:#E3E3E3;}
	.st186{fill:none;stroke:#00BFFF;stroke-width:0.7189;stroke-miterlimit:10;}
	.st187{fill:#4E9EBB;}
	.st188{fill:#58B6D7;}
	.st189{fill:none;stroke:#00BFFF;stroke-width:6;stroke-linecap:round;stroke-miterlimit:10;}
	.st190{fill-rule:evenodd;clip-rule:evenodd;fill:#07294D;}
	.st191{fill-rule:evenodd;clip-rule:evenodd;fill:#FFFFFF;}
	.st192{fill-rule:evenodd;clip-rule:evenodd;fill:#A3B7CE;}
	.st193{fill-rule:evenodd;clip-rule:evenodd;fill:#005AA9;}
	.st194{fill-rule:evenodd;clip-rule:evenodd;fill:#1B384C;}
	.st195{fill:none;stroke:#FFFFFF;stroke-width:4.4595;stroke-linecap:round;stroke-miterlimit:10;}
	.st196{opacity:0.2;fill:#86E0FC;}
	.st197{clip-path:url(#SVGID_48_);}
	.st198{fill:#B3D4D8;}
	.st199{fill:#CBE1E5;}
	.st200{fill:none;stroke:#00BFFF;stroke-width:2.1846;stroke-linecap:round;stroke-miterlimit:10;}
	.st201{clip-path:url(#SVGID_50_);}
	.st202{fill:#19598C;}
	.st203{fill:#A1C939;}
	.st204{fill:#005AA5;}
	.st205{clip-path:url(#SVGID_52_);}
	.st206{fill:none;stroke:#00BFFF;stroke-width:2.2082;stroke-linecap:round;stroke-miterlimit:10;}
	.st207{clip-path:url(#SVGID_54_);}
	.st208{fill:#00ADEE;stroke:#B8C4C4;stroke-width:1.4458;stroke-miterlimit:10;}
	.st209{fill:none;stroke:#005AA9;stroke-width:1.4458;stroke-miterlimit:10;}
	.st210{fill:none;stroke:#005AA9;stroke-width:4.0846;stroke-miterlimit:10;}
	.st211{fill:none;stroke:#00786F;stroke-width:1.4458;stroke-miterlimit:10;}
	.st212{fill:none;stroke:#005AA9;stroke-width:3.2326;stroke-linecap:round;stroke-miterlimit:10;}
	.st213{fill:none;stroke:#00ADEE;stroke-width:4.0846;stroke-miterlimit:10;}
	.st214{fill:#BBD96A;}
	.st215{opacity:0.2;fill:#00A4E6;}
	.st216{fill:#E3AC84;}
	.st217{fill:#D9A380;}
	.st218{fill:#EEC0A1;}
	.st219{fill:#0F3659;}
	.st220{fill:#D47923;}
	.st221{fill:#E6D0BD;}
	.st222{fill:#30CAF5;}
	.st223{fill:#F0E3DD;}
	.st224{fill:#C81B28;}
	.st225{fill:#9BB837;}
	.st226{fill:#AFBDC9;}
	.st227{opacity:0.4;fill:#065080;}
	.st228{opacity:0.2;fill:#065080;}
	.st229{fill:none;stroke:#A3B7CE;stroke-width:3.128;stroke-linecap:round;stroke-miterlimit:10;}
	.st230{fill:none;stroke:#A5CD39;stroke-width:1.0427;stroke-miterlimit:10;}
	.st231{opacity:0.5;fill:#8FA3BA;}
	.st232{fill:#7E8094;}
	.st233{opacity:0.4;fill:#505C7F;}
	.st234{opacity:0.2;fill:#505C7F;}
	.st235{fill:#97ABBF;}
	.st236{fill:#8093A8;}
	.st237{fill:#E3B68B;}
	.st238{fill:none;stroke:#A3B7CE;stroke-width:4;stroke-linecap:round;stroke-miterlimit:10;}
	.st239{fill:none;stroke:#FFFFFF;stroke-width:2;stroke-linecap:round;stroke-miterlimit:10;}
	.st240{clip-path:url(#SVGID_60_);}
	.st241{opacity:0.1;fill:url(#SVGID_61_);}
	.st242{fill:none;stroke:#005AA9;stroke-width:2.571;stroke-linecap:round;stroke-miterlimit:10;}
	.st243{opacity:0.5;fill:#0A80B2;}
	.st244{fill:#4BABBE;}
	.st245{opacity:0.5;fill:#61B6CE;}
	.st246{fill:none;stroke:#009DFF;stroke-width:1.7944;stroke-linecap:round;stroke-miterlimit:10;}
	.st247{fill:none;stroke:#009DFF;stroke-width:1.7944;stroke-linecap:round;stroke-miterlimit:10;stroke-dasharray:3.5893,10.7678;}
	.st248{opacity:0.15;fill:#00A9EB;}
	.st249{fill:#2BA9E6;}
	.st250{fill:none;stroke:#005AA9;stroke-width:3.1882;stroke-linecap:round;stroke-linejoin:round;stroke-miterlimit:10;}
	.st251{fill:#FFFFFF;stroke:#005AA9;stroke-width:3.1882;stroke-linecap:round;stroke-linejoin:round;stroke-miterlimit:10;}
	.st252{fill:none;stroke:#FFFFFF;stroke-width:3.1882;stroke-linecap:round;stroke-linejoin:round;stroke-miterlimit:10;}
	.st253{opacity:0.29;}
	.st254{fill:#00A9EB;}
	.st255{fill:#E7F6F8;}
	.st256{fill:#A2CA38;}
	.st257{opacity:0.45;fill:#A2CA38;}
	.st258{fill:#E2E3E4;}
	.st259{fill:none;stroke:#07294D;stroke-width:3.0528;stroke-miterlimit:10;}
	.st260{opacity:0.48;fill:#A2CA38;}
	.st261{fill:#D67B1B;}
	.st262{fill:none;stroke:#07294D;stroke-width:3.0524;stroke-linecap:round;stroke-miterlimit:10;}
	.st263{fill:#F4B97B;}
	.st264{opacity:0.42;}
	.st265{fill:#F48F1D;}
	
		.st266{opacity:0.26;fill:none;stroke:#FFFFFF;stroke-width:2.0352;stroke-linecap:round;stroke-linejoin:round;stroke-miterlimit:10;}
	.st267{opacity:0.26;fill:#FFFFFF;}
	.st268{opacity:0.61;clip-path:url(#SVGID_63_);}
	.st269{opacity:0.39;}
	.st270{fill:#CDCFD0;}
	.st271{opacity:0.2;fill:#00A9EB;}
	.st272{opacity:0.21;}
	.st273{clip-path:url(#SVGID_65_);}
	.st274{fill:#0159A6;}
	.st275{fill:none;stroke:#07294D;stroke-width:2.5283;stroke-miterlimit:10;}
	.st276{clip-path:url(#SVGID_67_);}
	.st277{fill:none;stroke:#07294D;stroke-width:1.9499;stroke-miterlimit:10;}
	.st278{fill:none;stroke:#005AA9;stroke-width:2.7368;stroke-linecap:round;stroke-linejoin:round;stroke-miterlimit:10;}
	.st279{fill:#065082;}
	.st280{fill:none;stroke:#86E0FC;stroke-width:1.9445;stroke-linecap:round;stroke-linejoin:round;stroke-miterlimit:10;}
	.st281{opacity:0.18;fill:#F4B97B;}
	.st282{fill:#1D80C8;}
	.st283{fill:#FFADB6;}
	.st284{fill:#F5B7C0;}
	.st285{fill:#E81C24;}
	.st286{opacity:0.33;}
	.st287{fill:none;stroke:#07294D;stroke-width:3.0145;stroke-miterlimit:10;}
	.st288{fill:none;stroke:#07294D;stroke-width:3.0145;stroke-linecap:round;stroke-linejoin:round;stroke-miterlimit:10;}
	.st289{fill:#E81C24;stroke:#B70F1B;stroke-width:3.0145;stroke-miterlimit:10;}
	.st290{fill:#E81C24;stroke:#B70F1B;stroke-width:2.0095;stroke-linejoin:round;stroke-miterlimit:10;}
	.st291{fill:#DDE8EB;}
	.st292{fill:#B70F1B;}
	
		.st293{opacity:0.17;fill:none;stroke:#2BA9E6;stroke-width:3.1311;stroke-linecap:round;stroke-linejoin:round;stroke-miterlimit:10;}
	.st294{fill:#F08D23;}
	.st295{opacity:0.57;fill:#F4B97B;}
	
		.st296{opacity:0.17;fill:none;stroke:#2BA9E6;stroke-width:4.8967;stroke-linecap:round;stroke-linejoin:round;stroke-miterlimit:10;}
	.st297{fill:none;stroke:#005AA9;stroke-width:3.1624;stroke-linecap:round;stroke-linejoin:round;stroke-miterlimit:10;}
	.st298{opacity:0.3;fill:#0159A6;}
	.st299{opacity:0.3;fill:none;stroke:#2BA9E6;stroke-width:0.5414;stroke-miterlimit:10;}
	.st300{fill:none;stroke:#A5CD39;stroke-width:3.1271;stroke-linecap:round;stroke-linejoin:round;stroke-miterlimit:10;}
	.st301{fill:#A2CA38;stroke:#A5CD39;stroke-width:3.1271;stroke-linecap:round;stroke-linejoin:round;stroke-miterlimit:10;}
	.st302{fill:#FFFFFF;stroke:#005AA9;stroke-width:3.1271;stroke-linecap:round;stroke-linejoin:round;stroke-miterlimit:10;}
	.st303{fill:none;stroke:#005AA9;stroke-width:3.1271;stroke-linecap:round;stroke-linejoin:round;stroke-miterlimit:10;}
	.st304{fill:none;stroke:#07294D;stroke-width:2.9314;stroke-miterlimit:10;}
	.st305{fill:#0C76C0;}
	.st306{fill:#93B934;}
	.st307{fill:none;stroke:#F6921E;stroke-width:3.4003;stroke-linecap:round;stroke-miterlimit:10;}
	.st308{fill:#FFFFFF;stroke:#F6921E;stroke-width:2.5198;stroke-linecap:round;stroke-miterlimit:10;}
	.st309{fill:#E8F3FB;}
	.st310{fill:#BCDE47;}
	.st311{fill:#EAEAEA;stroke:#F6921E;stroke-width:1.0782;stroke-miterlimit:10;}
	
		.st312{opacity:0.26;fill:none;stroke:#FFFFFF;stroke-width:3.2636;stroke-linecap:round;stroke-linejoin:round;stroke-miterlimit:10;}
	.st313{opacity:0.61;clip-path:url(#SVGID_69_);}
	.st314{fill:none;stroke:#A5CD39;stroke-width:2.4924;stroke-linecap:round;stroke-linejoin:round;stroke-miterlimit:10;}
	.st315{fill:#A2CA38;stroke:#A5CD39;stroke-width:2.4924;stroke-linecap:round;stroke-linejoin:round;stroke-miterlimit:10;}
	.st316{fill:#005AA9;stroke:#005AA9;stroke-width:0.6734;stroke-miterlimit:10;}
	.st317{fill:#005AA9;stroke:#005AA9;stroke-width:1.1724;stroke-miterlimit:10;}
	.st318{opacity:0.13;fill:#51B9DC;enable-background:new    ;}
	.st319{fill:#CBDDE7;}
	.st320{fill:#DEEFF3;}
	.st321{fill:#045085;}
	
		.st322{opacity:0.2;fill:none;stroke:#FFFFFF;stroke-width:3.3491;stroke-linecap:round;stroke-miterlimit:10;enable-background:new    ;}
	
		.st323{opacity:0.2;fill:none;stroke:#FFFFFF;stroke-width:3.2832;stroke-linecap:round;stroke-miterlimit:10;enable-background:new    ;}
	
		.st324{opacity:0.2;fill:none;stroke:#FFFFFF;stroke-width:3.8848;stroke-linecap:round;stroke-miterlimit:10;enable-background:new    ;}
	.st325{opacity:0.5;fill:#6CB627;enable-background:new    ;}
	.st326{opacity:0.5;fill:#292C3B;enable-background:new    ;}
	.st327{fill:#00BBFF;}
	.st328{opacity:0.3;fill:#8B4225;enable-background:new    ;}
	.st329{fill:#F28E1E;}
	.st330{fill:#C0966B;}
	.st331{fill:#27A6DD;}
	.st332{opacity:0.3;fill:#FFFFFF;enable-background:new    ;}
	.st333{fill:#8B4225;}
	.st334{opacity:0.3;fill:#27A6DD;enable-background:new    ;}
	.st335{opacity:0.2;fill:#07294D;enable-background:new    ;}
	.st336{fill:#EEEEEE;}
	.st337{opacity:0.5;fill:#333333;}
	.st338{fill:#D6DFE2;}
	.st339{clip-path:url(#SVGID_71_);}
	.st340{fill:none;stroke:#07294D;stroke-width:3.1032;stroke-linecap:round;stroke-miterlimit:10;}
	.st341{fill:none;stroke:#F6BC7C;stroke-width:1.5516;stroke-linecap:round;stroke-miterlimit:10;}
	.st342{clip-path:url(#SVGID_73_);}
	.st343{fill:#EAE6FF;}
	.st344{fill:#184E77;}
	.st345{fill:#E9E5FF;}
	.st346{fill:#FFB3BD;}
	.st347{fill:#CD6B07;}
	.st348{clip-path:url(#SVGID_75_);fill:#07294D;}
	.st349{fill:#009ECD;}
	.st350{fill:#82DCF8;}
	.st351{fill:none;stroke:#C9E46B;stroke-width:1.5983;stroke-linecap:round;stroke-miterlimit:10;}
	.st352{fill:none;stroke:#00BBFF;stroke-width:2.9861;stroke-linecap:round;stroke-miterlimit:10;}
	.st353{fill:none;stroke:#C9E46B;stroke-width:1.5074;stroke-linecap:round;stroke-miterlimit:10;}
	.st354{fill:#B3E6FF;}
	.st355{fill:#0A355B;}
	.st356{fill:#365E7E;}
	.st357{opacity:0.7;fill:#E4F3FF;enable-background:new    ;}
	.st358{opacity:0.4;fill:#A3D1E4;enable-background:new    ;}
	.st359{fill:#517F84;}
	.st360{fill:#2D5354;}
	.st361{fill:#85ADB5;}
	.st362{fill:#ECC6AA;}
	.st363{fill:#508C8D;}
	.st364{fill:#92B126;}
	.st365{opacity:0.2;enable-background:new    ;}
	.st366{fill:#EB8B84;}
	.st367{fill:#F0B1A9;}
	.st368{clip-path:url(#SVGID_77_);}
	.st369{fill:none;stroke:#F28E1E;stroke-width:0.6958;stroke-miterlimit:22.9256;}
	.st370{fill:#FFA494;}
	.st371{fill:#223B77;}
	.st372{fill:#FF8A79;}
	.st373{fill:#AB6861;}
	.st374{fill:#A9645D;}
	.st375{fill:#F5E28D;}
	.st376{fill:#C58E38;}
	.st377{opacity:0.18;fill:#F4B97B;enable-background:new    ;}
	.st378{fill:none;stroke:#07294D;stroke-width:1.017;stroke-miterlimit:22.9256;}
	.st379{fill:none;stroke:#07294D;stroke-width:2.0336;stroke-miterlimit:22.9256;}
	.st380{fill:#FFCCAB;}
	.st381{fill:#FFD242;}
	.st382{fill:#FFB083;}
	.st383{opacity:0.25;fill:#8FA3BA;}
	.st384{fill:#FFB68D;}
	.st385{opacity:0.4;fill:#AF704E;}
	.st386{fill:#006837;}
	.st387{fill:#FF8E14;}
	.st388{opacity:0.5;fill:#C35600;}
	.st389{fill:#C8C8C8;}
	.st390{fill:none;stroke:#F7AC3B;stroke-width:3.045;stroke-miterlimit:10;}
	.st391{fill:#C35600;}
	.st392{fill:#0071B8;}
	.st393{fill:#BD1B27;}
	.st394{fill:#A72025;}
	.st395{fill:#663407;}
	.st396{fill:none;stroke:#C9E46B;stroke-width:1.5587;stroke-linecap:round;stroke-miterlimit:10;}
	.st397{fill:#99B137;}
	.st398{fill:#05B1E1;}
	.st399{fill:none;stroke:#1D80C8;stroke-miterlimit:10;}
	.st400{fill:#EAEAEA;stroke:#F6921E;stroke-width:1.1336;stroke-miterlimit:10;}
	.st401{fill:none;stroke:#F6921E;stroke-width:3;stroke-linecap:round;stroke-miterlimit:10;}
	.st402{fill:none;stroke:#07294D;stroke-width:1.6327;stroke-miterlimit:10;}
	.st403{fill:none;stroke:#07294D;stroke-width:1.6327;stroke-linecap:round;stroke-linejoin:round;stroke-miterlimit:10;}
	.st404{fill:#E81C24;stroke:#B70F1B;stroke-width:1.6327;stroke-miterlimit:10;}
	.st405{fill:#E81C24;stroke:#B70F1B;stroke-width:1.0884;stroke-linejoin:round;stroke-miterlimit:10;}
	.st406{clip-path:url(#SVGID_79_);}
	.st407{fill:none;stroke:#F6921E;stroke-width:8.1415;stroke-linecap:round;stroke-miterlimit:10;}
	.st408{fill:none;stroke:#FAC07C;stroke-width:4.0707;stroke-linecap:round;stroke-miterlimit:10;}
	.st409{clip-path:url(#SVGID_81_);}
	.st410{fill:#FFFFFF;stroke:#005AA9;stroke-width:3.9437;stroke-miterlimit:10;}
	.st411{opacity:0.5;clip-path:url(#SVGID_81_);}
	.st412{clip-path:url(#SVGID_83_);}
	.st413{clip-path:url(#SVGID_85_);}
	.st414{fill:#FFFFFF;stroke:#005AA9;stroke-width:2.1477;stroke-miterlimit:10;}
	.st415{clip-path:url(#SVGID_87_);fill:#07294D;}
	.st416{fill:none;stroke:#C9E46B;stroke-width:1.5745;stroke-linecap:round;stroke-miterlimit:10;}
	.st417{clip-path:url(#SVGID_89_);}
	.st418{clip-path:url(#SVGID_89_);fill:#041B30;}
	.st419{fill:#E17E17;}
	.st420{clip-path:url(#SVGID_91_);fill:#00A760;}
	.st421{clip-path:url(#SVGID_91_);fill:#005AA9;}
	.st422{clip-path:url(#SVGID_93_);}
	.st423{fill:none;stroke:#07294D;stroke-width:2.329;stroke-miterlimit:10;}
	.st424{fill:none;stroke:#005AA9;stroke-width:3.3781;stroke-linecap:round;stroke-linejoin:round;stroke-miterlimit:10;}
	.st425{fill:#005AA9;stroke:#DCDCDC;stroke-width:2.6724;stroke-miterlimit:10;}
	.st426{fill:none;stroke:#DCDCDC;stroke-width:1.3362;stroke-miterlimit:10;}
	.st427{fill:none;stroke:#FFFFFF;stroke-width:2.9283;stroke-miterlimit:10;}
	.st428{fill:#B1988B;}
	.st429{fill:#977E6B;}
	.st430{fill:#8CA630;}
	.st431{fill:#A2C543;}
	.st432{fill:#0D7CCA;}
	.st433{fill:#CA2020;}
	.st434{fill:#8FAE22;}
	.st435{fill:#E1A023;}
	.st436{fill:#0080C2;}
	.st437{fill:#CDB9B0;}
	.st438{fill:#FF4D4D;}
	.st439{fill:#E13333;}
	.st440{fill:none;stroke:#F1A63B;stroke-width:10.3406;stroke-miterlimit:10;}
	.st441{fill:none;stroke:#A5CD39;stroke-width:10.3406;stroke-miterlimit:10;}
	.st442{fill:#24A9DF;}
	.st443{fill:#0088B3;}
	.st444{fill:#FF6900;}
	.st445{fill:#FFA873;}
	.st446{fill:#FBCD97;}
	.st447{fill:#2E88B4;}
	.st448{fill:#80972C;}
	.st449{fill:#E8EAEC;}
	.st450{fill:#161616;}
	.st451{fill:#E4F2F8;}
	.st452{opacity:0.25;fill:#005AA9;}
	.st453{fill:#005AA9;stroke:#E7E9FF;stroke-width:3;stroke-miterlimit:10;}
	.st454{fill:#005AA9;stroke:#E7E9FF;stroke-width:2.894;stroke-miterlimit:10;}
	.st455{opacity:0.13;fill:#0092D4;}
	.st456{opacity:0.5;fill:#004172;}
	.st457{fill:#FFB7C0;}
	.st458{fill:#0A80B9;}
	.st459{fill:#E29FAD;}
	.st460{fill:#229BE9;}
	.st461{fill:#FF8943;}
	.st462{fill:#D7600B;}
	.st463{fill:#FFBFAD;}
	.st464{fill:#D77C1B;}
	.st465{fill:#20C5A4;}
	.st466{fill:#F3B532;}
	.st467{fill:#04957E;}
	.st468{fill:#E4A01F;}
	.st469{opacity:0.2;fill-rule:evenodd;clip-rule:evenodd;}
	.st470{clip-path:url(#SVGID_95_);}
	.st471{fill:#99C55F;}
	.st472{fill:#7FAB2C;}
	.st473{opacity:0.19;fill:#050012;}
	.st474{fill:#C0B1B3;}
	.st475{fill:#D2C1C0;}
	.st476{fill:#88B848;}
	.st477{fill:#454E5B;}
	.st478{fill:#6CC3EC;}
	.st479{opacity:0.15;fill:#FFFFFF;}
	.st480{fill:#E2F3F7;stroke:#07294D;stroke-width:10.2251;stroke-miterlimit:10;}
	.st481{opacity:0.2;fill:url(#SVGID_96_);}
	.st482{opacity:0.1;fill:url(#SVGID_97_);}
	.st483{fill:#4D3B28;}
	.st484{fill:#F8B333;}
	.st485{fill:#062135;}
	.st486{fill:#DB8055;}
	.st487{opacity:0.4;}
	.st488{fill:none;stroke:#00BFFF;stroke-width:0.6889;stroke-linecap:round;stroke-miterlimit:10;}
	.st489{fill:none;stroke:#00BFFF;stroke-width:1.3411;stroke-linecap:round;stroke-miterlimit:10;}
	.st490{fill:none;stroke:#00BFFF;stroke-width:0.6363;stroke-linecap:round;stroke-miterlimit:10;}
	.st491{fill:none;stroke:#FFFFFF;stroke-width:1.4242;stroke-miterlimit:10;}
	.st492{fill:#057ACB;}
	.st493{fill:#9D5814;}
	.st494{fill:#BE6D16;}
	.st495{fill:#92B226;}
	.st496{fill:#BBD9F1;}
	.st497{fill:#1E3B6F;}
	.st498{fill:#BB6E1B;}
	.st499{fill:#9DCAE9;}
	.st500{fill:#A21A24;}
	.st501{fill:#0081FA;}
	.st502{fill:#CF8D5F;}
	.st503{fill:#0F9FEE;}
	.st504{fill:#956233;}
	.st505{fill:#C5C5C5;}
	.st506{fill:#636363;}
	.st507{fill:#404040;}
	.st508{fill:#363636;}
	.st509{fill:none;stroke:#FFFFFF;stroke-width:4.4457;stroke-miterlimit:10;}
	.st510{fill:none;stroke:#8FA3BA;stroke-width:0.8533;stroke-miterlimit:10;}
	.st511{fill:#95978D;}
	.st512{opacity:0.7;fill:#D6816C;}
	.st513{fill:#B2B3AE;}
	.st514{fill:#F2E9ED;}
	.st515{fill:#793B11;}
	.st516{opacity:0.6;fill:#793B11;}
	.st517{fill:#BD6B55;}
	.st518{fill:none;stroke:#FFFFFF;stroke-width:1.3798;stroke-miterlimit:10;}
	.st519{fill:none;stroke:#062135;stroke-width:4.0404;stroke-linecap:round;stroke-miterlimit:10;}
	.st520{fill:#30B1EB;}
	.st521{opacity:0.2;fill:#07294D;}
	.st522{fill:#00A5ED;}
	.st523{fill:none;stroke:#07294D;stroke-width:0.8081;stroke-miterlimit:10;}
	.st524{opacity:0.2;fill:#FFFFFF;}
	.st525{fill:#F2F3F4;}
	.st526{fill:none;stroke:#FFFFFF;stroke-width:5.5348;stroke-miterlimit:10;}
	.st527{fill:none;stroke:#FFFFFF;stroke-width:3.4719;stroke-miterlimit:10;}
	.st528{fill:#ECECEC;}
	.st529{fill:#F1F1F1;}
	.st530{fill-rule:evenodd;clip-rule:evenodd;fill:#ECECEC;}
	.st531{fill:#C5C6C7;}
	.st532{fill:#E6E8E9;}
	.st533{fill:#B2B2B4;}
	.st534{fill:#9E9EA2;}
	.st535{fill:#0082BF;}
	.st536{fill:#8C8C8D;}
	.st537{fill:#FF0100;}
	.st538{fill:#7A7A7B;}
	.st539{fill:#9E9EA0;}
	.st540{fill:none;stroke:#FFFFFF;stroke-width:3.6541;stroke-miterlimit:10;}
	.st541{fill:#ADADAD;}
	.st542{fill:#C6C6C6;}
	.st543{fill:#808080;}
	.st544{fill:#FF3000;}
	.st545{fill:#E0E0E0;}
	.st546{fill:#939393;}
	.st547{fill:#00A9EA;}
	.st548{clip-path:url(#SVGID_99_);}
	.st549{fill:#095F8F;}
	.st550{fill:none;stroke:#00BBFF;stroke-width:3.07;stroke-linecap:round;stroke-miterlimit:10;}
	.st551{clip-path:url(#SVGID_101_);}
	.st552{fill:#FFB247;}
	.st553{fill:#61B1C5;}
	.st554{fill:#D78146;}
	.st555{opacity:0.3;fill:#D78146;enable-background:new    ;}
	.st556{clip-path:url(#SVGID_103_);}
	.st557{fill:#35ABD0;}
	.st558{fill:#CCDC73;}
	.st559{opacity:0.3;fill:#FFB480;enable-background:new    ;}
	.st560{opacity:0.3;fill:#35ABD0;enable-background:new    ;}
	.st561{fill:#1C809F;}
	.st562{fill:#9FB448;}
	.st563{opacity:0.3;fill:#9FB448;enable-background:new    ;}
	.st564{opacity:0.5;fill:#70802D;enable-background:new    ;}
	.st565{fill:url(#SVGID_104_);}
	.st566{fill:#C2701A;}
	.st567{opacity:0.2;fill:#9A291D;enable-background:new    ;}
	.st568{fill:#7B1E1C;}
	.st569{clip-path:url(#SVGID_106_);}
	.st570{clip-path:url(#SVGID_108_);}
	.st571{clip-path:url(#SVGID_110_);}
	.st572{fill:url(#SVGID_111_);}
	.st573{fill:#F0F0F0;}
	.st574{fill:#C9C8CE;}
	.st575{clip-path:url(#SVGID_113_);fill:#D7E2EE;}
	.st576{clip-path:url(#SVGID_113_);fill:#005AA9;}
	.st577{fill:#D7E2EE;}
	.st578{fill:#F3C2B9;}
	.st579{fill:#A4501D;}
	.st580{clip-path:url(#SVGID_117_);}
	.st581{fill:#A7B7C5;}
	.st582{fill:#D8DDE1;}
	.st583{fill:#CFCFD9;}
	.st584{fill:#AF704E;}
	.st585{fill:#E5EAF0;}
	.st586{opacity:0.35;fill:#FFFFFF;}
	.st587{fill:#151823;}
	.st588{fill:#C89080;}
	.st589{fill:#282A35;}
	.st590{opacity:0.4;fill:#FFFFFF;}
	.st591{opacity:0.42;fill:#00BFFF;}
	.st592{opacity:0.1;fill:url(#SVGID_118_);}
	.st593{opacity:0.1;fill:url(#SVGID_119_);}
	.st594{opacity:0.5;fill:#CCCECF;}
	.st595{opacity:0.2;fill:#485654;}
	.st596{opacity:0.5;fill:#06486D;}
	.st597{fill:#3A83C0;}
	.st598{opacity:0.5;fill:#3A83C0;}
	.st599{fill:none;stroke:#CDCFD0;stroke-width:0.9885;stroke-miterlimit:10;}
	.st600{opacity:0.5;fill:#00BFFF;}
	.st601{opacity:0.5;fill:#FFFFFF;}
	.st602{opacity:0.1;fill:url(#SVGID_123_);}
	.st603{opacity:0.1;fill:url(#SVGID_124_);}
	.st604{fill:#CCD6DE;}
	.st605{fill:#FFC177;}
	.st606{fill:#FAF2F3;}
	.st607{fill:#FFEFE0;}
	.st608{fill:#FFD8A9;}
	.st609{fill:#FFE4C5;}
	.st610{clip-path:url(#SVGID_128_);}
	.st611{opacity:0.57;fill:#00BFFF;}
	.st612{fill:#DDDDDD;}
	.st613{opacity:0.1;}
	.st614{fill:#AABBCA;}
	.st615{opacity:0.1;fill:url(#SVGID_131_);}
	.st616{opacity:0.1;fill:url(#SVGID_132_);}
	.st617{opacity:0.1;fill:url(#SVGID_133_);}
	.st618{opacity:0.1;fill:url(#SVGID_136_);}
	.st619{opacity:0.1;fill:url(#SVGID_137_);}
	.st620{fill:#E91C24;}
	.st621{fill:#A2CA39;}
	.st622{fill:#00AAEB;}
	.st623{fill:#231F20;}
	.st624{opacity:0.1;fill:url(#SVGID_138_);}
	.st625{opacity:0.1;fill:url(#SVGID_141_);}
	
		.st626{opacity:0.26;fill:none;stroke:#FFFFFF;stroke-width:5.5506;stroke-linecap:round;stroke-linejoin:round;stroke-miterlimit:10;}
	.st627{opacity:0.61;clip-path:url(#SVGID_143_);}
	.st628{fill:#F3887E;}
	.st629{fill:#FFF8EB;}
	.st630{fill:#F1D6BC;}
	.st631{fill:#E99D78;}
	.st632{opacity:0.8;}
	.st633{fill:#4980C5;}
	.st634{fill:#A71511;}
	.st635{fill:#D1A57F;}
	.st636{fill:#AFE9F0;}
	.st637{fill:#FCC827;}
	.st638{fill:#E02013;}
	.st639{fill:url(#SVGID_144_);}
	.st640{fill:url(#SVGID_145_);}
	.st641{fill:#201A58;}
	.st642{clip-path:url(#SVGID_147_);fill:#37B663;}
	.st643{fill:#37B663;}
	.st644{fill:#253B7F;}
	.st645{fill:#2A3682;}
	.st646{fill:#FFD000;}
	.st647{fill:#F3EFF6;}
	.st648{fill:url(#SVGID_148_);}
	.st649{fill:url(#SVGID_149_);}
	.st650{fill:url(#SVGID_150_);}
	.st651{clip-path:url(#SVGID_152_);fill:#37BEEF;}
	.st652{fill:#37BEEF;}
	.st653{fill:#F3BAAD;}
	.st654{fill:#234F7F;}
	.st655{fill:#3E5F70;}
	.st656{fill:#F2837E;}
	.st657{fill:#2B4D80;}
	.st658{fill:url(#SVGID_153_);}
	.st659{fill:#D3AB8F;}
	.st660{fill:url(#SVGID_154_);}
	.st661{fill:url(#SVGID_155_);}
	.st662{fill:url(#SVGID_156_);}
	.st663{fill:#11282D;}
	.st664{fill:#1D3D44;}
	.st665{fill:#CCCBCB;}
	.st666{fill:#DEDEDE;}
	.st667{fill:url(#SVGID_157_);}
	.st668{fill:#080C0C;}
	.st669{fill:#00A5E7;}
	.st670{fill:none;stroke:#FFFFFF;stroke-width:7.4418;stroke-linecap:round;stroke-miterlimit:10;}
	.st671{fill:#F6A759;}
	.st672{clip-path:url(#SVGID_159_);fill:#07294D;}
	.st673{clip-path:url(#SVGID_159_);}
	.st674{clip-path:url(#SVGID_161_);fill:#07294D;}
	.st675{opacity:0.4;fill:#B1B2B4;}
	.st676{fill:#EBEBEF;}
	.st677{fill:#065084;}
	.st678{fill:#B3B2B2;}
	.st679{fill:#ECEEC6;}
	.st680{fill:#D1D1D1;}
	.st681{fill:#DCDCDF;}
	.st682{fill:#B1192C;}
	.st683{fill:#FFB783;}
	.st684{fill:#543823;}
	.st685{fill:#D77B1E;}
	.st686{fill:#A5CD38;}
	.st687{fill:#0A78C8;}
	.st688{fill:none;stroke:#005AA9;stroke-width:1.9135;stroke-linecap:round;stroke-linejoin:round;stroke-miterlimit:10;}
	.st689{fill:#C01724;}
	.st690{opacity:0.2;fill:#C36B1A;}
	.st691{fill:#C36B1A;}
	.st692{fill:#F7BC7B;}
	.st693{fill:none;stroke:#00ACEE;stroke-miterlimit:10;}
	.st694{fill:#00ACEE;}
	.st695{fill:#F7921D;}
	.st696{fill:#EB1C24;}
	.st697{fill:#84DEFA;}
	.st698{fill:#092A4E;}
	.st699{fill:#75C1D8;}
	.st700{fill:#0B2C4E;}
	.st701{fill:#F4921F;}
	.st702{fill-rule:evenodd;clip-rule:evenodd;fill:#BDDFF6;}
	.st703{fill-rule:evenodd;clip-rule:evenodd;fill:#A9D2EE;}
	.st704{fill-rule:evenodd;clip-rule:evenodd;fill:#A5CD39;}
	.st705{fill-rule:evenodd;clip-rule:evenodd;fill:#E0EEF9;}
	.st706{fill-rule:evenodd;clip-rule:evenodd;fill:#1A2A3A;}
	.st707{fill-rule:evenodd;clip-rule:evenodd;fill:#93B934;}
	.st708{opacity:0.48;fill-rule:evenodd;clip-rule:evenodd;fill:#A2CA38;}
	.st709{fill-rule:evenodd;clip-rule:evenodd;fill:#F4B97B;}
	.st710{fill-rule:evenodd;clip-rule:evenodd;fill:#F48F1D;}
	.st711{fill-rule:evenodd;clip-rule:evenodd;fill:#86E0FC;}
	.st712{opacity:0.2;fill:#494874;}
	.st713{fill:none;stroke:#FFFFFF;stroke-width:15.9012;stroke-miterlimit:10;}
	.st714{fill:#EC1C24;stroke:#EC1C24;stroke-width:0.3698;stroke-miterlimit:10;}
	.st715{fill:#00BFFF;stroke:#005AA9;stroke-width:2.2158;stroke-miterlimit:10;}
	.st716{opacity:0.8;fill:#FFFFFF;}
	.st717{fill:#EC1C24;stroke:#BE101C;stroke-width:1.5722;stroke-miterlimit:10;}
	.st718{fill:none;stroke:#00BFFF;stroke-width:1.2667;stroke-linecap:round;stroke-miterlimit:10;}
	.st719{fill:#C5121F;}
	.st720{fill:#F3C733;}
	.st721{fill:#88A921;}
	.st722{fill:#728810;}
	.st723{fill:#DEFFA5;}
	.st724{fill:#E0B95C;}
	.st725{clip-path:url(#XMLID_152_);fill:#C36B1A;}
	.st726{clip-path:url(#XMLID_152_);fill:#F4B97B;}
	.st727{clip-path:url(#XMLID_157_);fill:#C36B1A;}
	.st728{clip-path:url(#XMLID_157_);fill:#F4B97B;}
	.st729{fill:#A8D268;}
	.st730{fill:#95BB53;}
	.st731{fill:#FFBA75;}
	.st732{fill:#04487C;}
	.st733{fill:#AFAFAF;}
	.st734{fill:#ECEBEB;}
	.st735{fill:#BCEDF8;}
	.st736{fill:none;stroke:#07294D;stroke-width:0.5366;stroke-linecap:round;stroke-linejoin:round;stroke-miterlimit:10;}
	
		.st737{opacity:0.2;fill:none;stroke:#333333;stroke-width:0.3577;stroke-linecap:round;stroke-linejoin:round;stroke-miterlimit:10;}
	.st738{fill:#F9CC8B;}
	.st739{fill:#F99F4A;}
	.st740{fill:#650101;}
	.st741{fill:#723939;}
	.st742{fill:#B8C4C4;}
	.st743{fill:#BDDFF6;}
	.st744{clip-path:url(#SVGID_163_);}
	.st745{opacity:0.15;fill:#005AA9;}
	.st746{opacity:0.2;clip-path:url(#SVGID_167_);fill:#07294D;}
	.st747{clip-path:url(#SVGID_167_);}
	.st748{clip-path:url(#SVGID_171_);}
	.st749{clip-path:url(#SVGID_173_);}
	.st750{clip-path:url(#SVGID_175_);}
	.st751{clip-path:url(#SVGID_179_);}
	.st752{clip-path:url(#SVGID_181_);}
	.st753{clip-path:url(#SVGID_183_);}
	.st754{clip-path:url(#SVGID_167_);fill:#A5CD39;}
	.st755{clip-path:url(#SVGID_167_);fill:#69AF20;}
	.st756{clip-path:url(#SVGID_167_);fill:#91AF27;}
	.st757{fill:#EBFFFE;}
	.st758{fill:#00EAEA;}
	.st759{clip-path:url(#SVGID_185_);}
	.st760{fill:#ED2939;}
	.st761{clip-path:url(#SVGID_187_);}
	.st762{fill:#BC002D;}
	.st763{clip-path:url(#SVGID_189_);}
	.st764{fill:#B10001;}
	.st765{fill:#010066;}
	.st766{fill:#FFB100;}
	.st767{clip-path:url(#SVGID_191_);}
	.st768{fill:#008349;}
	.st769{fill:#B31126;}
	.st770{clip-path:url(#SVGID_193_);}
	.st771{clip-path:url(#SVGID_195_);}
	.st772{fill:#FF8033;}
	.st773{fill:#128007;}
	.st774{fill:#000080;}
	.st775{clip-path:url(#SVGID_197_);}
	.st776{clip-path:url(#SVGID_199_);}
	.st777{clip-path:url(#SVGID_201_);}
	.st778{clip-path:url(#SVGID_203_);}
	.st779{fill:#5AA31A;}
	.st780{fill:#91AF27;}
	.st781{fill:#7FCE32;}
	.st782{opacity:0.3;fill:#417EAF;}
	.st783{opacity:0.8;fill:#467A03;}
	.st784{opacity:0.3;fill:#2B6D99;}
	.st785{fill:#EBFFFD;}
	.st786{opacity:0.3;fill:#A3B7CE;}
	.st787{fill:#E9FFFD;}
	.st788{fill:#46738C;}
	.st789{opacity:0.6;fill:url(#SVGID_204_);}
	.st790{fill:#B6C3CE;}
	.st791{opacity:0.8;fill:#BCBFD8;}
	.st792{clip-path:url(#SVGID_206_);}
	.st793{opacity:0.4;fill:#A3B7CE;}
	.st794{clip-path:url(#SVGID_206_);fill:#EC1C24;}
	.st795{clip-path:url(#SVGID_206_);fill:#FFFFFF;}
	.st796{clip-path:url(#SVGID_208_);}
	.st797{opacity:0.9;}
	.st798{opacity:0.9;fill:#FF4447;}
	.st799{clip-path:url(#SVGID_210_);}
	.st800{clip-path:url(#SVGID_210_);fill:#EC1C24;}
	.st801{clip-path:url(#SVGID_210_);fill:#FFFFFF;}
	.st802{clip-path:url(#SVGID_212_);}
	.st803{clip-path:url(#SVGID_214_);fill:#00BFFF;}
	.st804{clip-path:url(#SVGID_214_);}
	.st805{fill:#F9CAAA;}
	.st806{clip-path:url(#SVGID_214_);fill:#06776F;}
	.st807{opacity:0.4;clip-path:url(#SVGID_214_);fill:#06776F;}
	.st808{opacity:0.4;clip-path:url(#SVGID_214_);fill:#CC8A3A;}
	.st809{clip-path:url(#SVGID_214_);fill:#FFFFFF;}
	.st810{fill:#D1ED5D;}
	.st811{fill:#00ADDB;}
	.st812{fill:#5ADCFF;}
	.st813{opacity:0.2;clip-path:url(#SVGID_216_);fill:#07294D;}
	.st814{clip-path:url(#SVGID_216_);}
	.st815{fill:#4C842A;}
	.st816{fill:#B2760B;}
	.st817{fill:#89A521;}
	.st818{fill:#F9BB8A;}
	.st819{fill:#54511D;}
	.st820{fill:#F9E2D2;}
	.st821{fill:#6B6725;}
	.st822{fill:#6D4E2D;}
	.st823{fill:#7C5531;}
	.st824{fill:#604329;}
	.st825{fill:#6E9312;}
</style><g><path class="st8" d="M257.4,117.2h9.9v12.5c-3.6,1.6-7.2,2.4-10.8,2.4c-4.9,0-8.8-1.4-11.7-4.3c-2.9-2.8-4.4-6.3-4.4-10.5   c0-4.4,1.5-8,4.5-11c3-2.9,6.8-4.4,11.4-4.4c1.7,0,3.2,0.2,4.7,0.5c1.5,0.4,3.4,1,5.6,2v4.3c-3.5-2-7-3.1-10.4-3.1   c-3.2,0-5.9,1.1-8.1,3.3c-2.2,2.2-3.3,4.9-3.3,8.1c0,3.3,1.1,6.1,3.3,8.2s5,3.2,8.5,3.2c1.7,0,3.7-0.4,6-1.2l0.4-0.1V121h-5.7   L257.4,117.2L257.4,117.2z"/><rect x="272.1" y="102.2" class="st8" width="3.8" height="29.4"/><path class="st8" d="M289.9,112.2c2.9,0,5.4,0.9,7.3,2.9c2,1.9,2.9,4.3,2.9,7.2c0,2.8-1,5.1-3,7c-2,1.8-4.5,2.8-7.5,2.8   c-2.9,0-5.3-0.9-7.3-2.8s-2.9-4.2-2.9-7s1-5.2,3-7.1C284.4,113.2,286.9,112.2,289.9,112.2 M289.7,115.7c-1.8,0-3.3,0.6-4.5,1.8   c-1.2,1.2-1.8,2.7-1.8,4.6s0.6,3.4,1.8,4.5c1.2,1.2,2.8,1.8,4.7,1.8c1.9,0,3.4-0.6,4.6-1.8c1.2-1.2,1.8-2.7,1.8-4.6   c0-1.8-0.6-3.4-1.9-4.6C293.1,116.3,291.6,115.7,289.7,115.7"/><path class="st8" d="M302.5,102.2h3.8v11.4c1.7-1.2,3.4-1.8,5.3-1.8c2.5,0,4.5,0.9,6,2.8c1.6,1.9,2.3,4.2,2.3,7.1   c0,3.1-0.9,5.6-2.8,7.4s-4.4,2.8-7.5,2.8c-1.2,0-2.6-0.1-3.9-0.4c-1.4-0.3-2.5-0.6-3.3-1v-28.3H302.5z M306.3,117.3v10.5   c1.3,0.4,2.6,0.6,4,0.6c1.7,0,3.1-0.6,4.2-1.8c1.1-1.2,1.6-2.8,1.6-4.7c0-1.9-0.5-3.5-1.5-4.7s-2.3-1.8-3.9-1.8   C309.3,115.4,307.8,116.1,306.3,117.3"/><path class="st8" d="M335.7,120v8.2c0,0.7,0.2,1,0.7,1s1.2-0.3,2.2-1v2.3c-0.9,0.6-1.6,0.9-2.1,1.1c-0.5,0.2-1.1,0.3-1.7,0.3   c-1.6,0-2.6-0.6-2.9-1.9c-1.6,1.3-3.4,1.9-5.2,1.9c-1.3,0-2.5-0.5-3.4-1.3c-0.9-0.9-1.3-2-1.3-3.4c0-1.2,0.4-2.3,1.3-3.3   s2.1-1.7,3.7-2.3l4.9-1.7v-1c0-2.3-1.2-3.5-3.5-3.5c-2.1,0-4.1,1.1-6.1,3.2v-4.2c1.5-1.8,3.6-2.6,6.4-2.6c2.1,0,3.8,0.5,5,1.6   c0.4,0.4,0.8,0.8,1.1,1.4c0.3,0.6,0.5,1.2,0.6,1.7C335.6,117.3,335.7,118.4,335.7,120 M331.9,127.8v-5.7l-2.6,1   c-1.3,0.5-2.2,1-2.8,1.6c-0.5,0.5-0.8,1.2-0.8,2s0.3,1.4,0.8,2c0.5,0.5,1.2,0.8,2,0.8C329.7,129.3,330.9,128.8,331.9,127.8"/><rect x="341.1" y="102.2" class="st8" width="3.8" height="29.4"/><rect x="361.3" y="102.2" class="st8" width="4.2" height="29.4"/><path class="st8" d="M374.5,112.3v2.5c1.7-1.9,3.7-2.8,5.8-2.8c1.2,0,2.3,0.3,3.4,0.9c1,0.6,1.8,1.5,2.4,2.6   c0.5,1.1,0.8,2.8,0.8,5.2v11.1H383v-11c0-2-0.3-3.4-0.9-4.2c-0.6-0.9-1.6-1.3-3-1.3c-1.8,0-3.3,0.9-4.6,2.7v13.8h-3.9v-19.4   L374.5,112.3L374.5,112.3z"/><path class="st8" d="M404.3,102.2h3.9v29.4H400c-2.9,0-5.1-0.9-6.9-2.7c-1.7-1.8-2.6-4.2-2.6-7.3c0-2.8,0.9-5.2,2.7-7   c1.8-1.8,4.1-2.8,6.9-2.8c1.3,0,2.7,0.3,4.2,0.8L404.3,102.2L404.3,102.2z M404.3,128.4v-12.3c-1.2-0.6-2.4-0.9-3.6-0.9   c-1.9,0-3.4,0.6-4.6,1.9c-1.1,1.3-1.7,2.9-1.7,5.1c0,2,0.5,3.5,1.5,4.6c0.6,0.6,1.2,1.1,1.9,1.3c0.7,0.2,1.8,0.3,3.6,0.3H404.3z"/><path class="st8" d="M414.5,104.1c0.6,0,1.2,0.2,1.6,0.6s0.7,1,0.7,1.6s-0.2,1.2-0.7,1.6c-0.4,0.4-1,0.7-1.6,0.7s-1.1-0.2-1.6-0.7   c-0.4-0.5-0.7-1-0.7-1.6s0.2-1.1,0.7-1.6C413.4,104.4,413.9,104.1,414.5,104.1 M412.6,112.3h3.8v19.4h-3.8V112.3z"/><path class="st8" d="M433.3,120v8.2c0,0.7,0.2,1,0.7,1s1.2-0.3,2.2-1v2.3c-0.9,0.6-1.6,0.9-2.1,1.1c-0.5,0.2-1.1,0.3-1.7,0.3   c-1.6,0-2.6-0.6-2.9-1.9c-1.6,1.3-3.4,1.9-5.2,1.9c-1.3,0-2.5-0.5-3.4-1.3c-0.9-0.9-1.3-2-1.3-3.4c0-1.2,0.4-2.3,1.3-3.3   s2.1-1.7,3.7-2.3l4.9-1.7v-1c0-2.3-1.2-3.5-3.5-3.5c-2.1,0-4.1,1.1-6.1,3.2v-4.2c1.5-1.8,3.6-2.6,6.4-2.6c2.1,0,3.8,0.5,5,1.6   c0.4,0.4,0.8,0.8,1.1,1.4c0.3,0.6,0.6,1.2,0.6,1.7C433.2,117.3,433.3,118.4,433.3,120 M429.5,127.8v-5.7l-2.6,1   c-1.3,0.5-2.2,1-2.8,1.6c-0.5,0.5-0.8,1.2-0.8,2s0.3,1.4,0.8,2c0.5,0.5,1.2,0.8,2,0.8C427.3,129.3,428.4,128.8,429.5,127.8"/><path class="st8" d="M442.4,112.3v2.5c1.7-1.9,3.7-2.8,5.8-2.8c1.2,0,2.3,0.3,3.4,0.9c1,0.6,1.8,1.5,2.4,2.6   c0.5,1.1,0.8,2.8,0.8,5.2v11.1H451v-11c0-2-0.3-3.4-0.9-4.2c-0.6-0.9-1.6-1.3-3-1.3c-1.8,0-3.3,0.9-4.6,2.7v13.8h-3.9v-19.4   L442.4,112.3L442.4,112.3z"/><rect x="241.5" y="141.5" class="st8" width="4.2" height="29.4"/><path class="st8" d="M254.7,151.6v2.5c1.7-1.9,3.7-2.8,5.8-2.8c1.2,0,2.3,0.3,3.4,0.9c1,0.6,1.8,1.5,2.4,2.6   c0.5,1.1,0.8,2.8,0.8,5.2v11.1h-3.8v-11c0-2-0.3-3.4-0.9-4.2c-0.6-0.9-1.6-1.3-3-1.3c-1.8,0-3.3,0.9-4.6,2.7v13.8h-3.9v-19.4h3.8   V151.6z"/><path class="st8" d="M268.9,154.6l7.2-7.1v4h6.1v3.5h-6.1v9.5c0,2.2,0.9,3.3,2.8,3.3c1.4,0,2.8-0.5,4.4-1.4v3.6   c-1.5,0.8-3.1,1.2-4.8,1.2c-1.8,0-3.2-0.5-4.4-1.5c-0.4-0.3-0.7-0.7-0.9-1c-0.2-0.4-0.4-0.9-0.6-1.5s-0.2-1.8-0.2-3.6V155H269v-0.4   H268.9z"/><path class="st8" d="M301.6,161.6H288c0.1,1.9,0.7,3.3,1.9,4.4c1.1,1.1,2.6,1.6,4.4,1.6c2.5,0,4.9-0.8,7-2.4v3.7   c-1.2,0.8-2.4,1.3-3.5,1.7c-1.2,0.3-2.5,0.5-4.1,0.5c-2.1,0-3.9-0.4-5.2-1.3c-1.3-0.9-2.4-2.1-3.2-3.6c-0.8-1.5-1.2-3.2-1.2-5.2   c0-2.9,0.8-5.3,2.5-7.2c1.7-1.8,3.8-2.8,6.5-2.8c2.6,0,4.6,0.9,6.2,2.7c1.5,1.8,2.3,4.2,2.3,7.2L301.6,161.6L301.6,161.6z    M288,159.3h9.7c-0.1-1.5-0.6-2.7-1.4-3.5s-1.9-1.2-3.3-1.2s-2.5,0.4-3.4,1.2C288.9,156.6,288.3,157.8,288,159.3"/><path class="st8" d="M309,151.6v4.4l0.2-0.3c1.9-3,3.7-4.5,5.6-4.5c1.4,0,2.9,0.7,4.5,2.2l-2,3.4c-1.3-1.3-2.6-1.9-3.7-1.9   c-1.2,0-2.3,0.6-3.2,1.8c-0.9,1.2-1.4,2.6-1.4,4.2V171h-3.9v-19.4H309z"/><path class="st8" d="M326.6,151.6v2.5c1.7-1.9,3.7-2.8,5.8-2.8c1.2,0,2.3,0.3,3.4,0.9c1,0.6,1.8,1.5,2.4,2.6   c0.5,1.1,0.8,2.8,0.8,5.2v11.1h-3.8v-11c0-2-0.3-3.4-0.9-4.2c-0.6-0.9-1.6-1.3-3-1.3c-1.8,0-3.3,0.9-4.6,2.7v13.8h-3.9v-19.4h3.8   V151.6z"/><path class="st8" d="M355.7,159.3v8.2c0,0.7,0.2,1,0.7,1s1.2-0.3,2.2-1v2.3c-0.9,0.6-1.6,0.9-2.1,1.2c-0.5,0.2-1.1,0.3-1.7,0.3   c-1.6,0-2.6-0.6-2.9-1.9c-1.6,1.3-3.4,1.9-5.2,1.9c-1.3,0-2.5-0.4-3.4-1.3c-0.9-0.9-1.3-2-1.3-3.4c0-1.2,0.4-2.3,1.3-3.3   s2.1-1.7,3.7-2.3l4.9-1.7v-1c0-2.3-1.2-3.5-3.5-3.5c-2.1,0-4.1,1.1-6.1,3.2v-4.2c1.5-1.8,3.6-2.6,6.4-2.6c2.1,0,3.8,0.5,5,1.6   c0.4,0.4,0.8,0.8,1.1,1.4c0.3,0.6,0.6,1.2,0.6,1.7C355.6,156.5,355.7,157.7,355.7,159.3 M351.9,167.1v-5.7l-2.6,1   c-1.3,0.5-2.2,1-2.8,1.6c-0.5,0.5-0.8,1.2-0.8,2s0.3,1.4,0.8,2c0.5,0.5,1.2,0.8,2,0.8C349.7,168.6,350.9,168.1,351.9,167.1"/><path class="st8" d="M358.3,154.6l7.2-7.1v4h6.1v3.5h-6.1v9.5c0,2.2,0.9,3.3,2.8,3.3c1.4,0,2.8-0.5,4.4-1.4v3.6   c-1.5,0.8-3.1,1.2-4.8,1.2c-1.8,0-3.2-0.5-4.4-1.5c-0.4-0.3-0.7-0.7-0.9-1c-0.2-0.4-0.4-0.9-0.6-1.5s-0.2-1.8-0.2-3.6V155h-3.4   v-0.4H358.3z"/><path class="st8" d="M378.2,143.4c0.6,0,1.2,0.2,1.6,0.7c0.4,0.4,0.7,1,0.7,1.6s-0.2,1.1-0.7,1.6c-0.4,0.4-1,0.7-1.6,0.7   s-1.1-0.2-1.6-0.7c-0.4-0.5-0.7-1-0.7-1.6s0.2-1.1,0.7-1.6C377.1,143.6,377.7,143.4,378.2,143.4 M376.3,151.6h3.8V171h-3.8V151.6z"/><path class="st8" d="M394.1,151.5c2.9,0,5.4,1,7.3,2.9c2,1.9,2.9,4.3,2.9,7.2c0,2.8-1,5.1-3,7c-2,1.8-4.5,2.8-7.5,2.8   c-2.9,0-5.3-0.9-7.3-2.8c-1.9-1.9-2.9-4.2-2.9-7s1-5.2,3-7.1C388.7,152.5,391.1,151.5,394.1,151.5 M393.9,155   c-1.8,0-3.3,0.6-4.5,1.8s-1.8,2.7-1.8,4.6c0,1.9,0.6,3.4,1.8,4.5c1.2,1.2,2.8,1.8,4.7,1.8c1.9,0,3.4-0.6,4.6-1.8s1.8-2.7,1.8-4.6   c0-1.8-0.6-3.4-1.9-4.6C397.4,155.6,395.8,155,393.9,155"/><path class="st8" d="M411.6,151.6v2.5c1.7-1.9,3.7-2.8,5.8-2.8c1.2,0,2.3,0.3,3.4,0.9c1,0.6,1.8,1.5,2.4,2.6   c0.5,1.1,0.8,2.8,0.8,5.2v11.1h-3.8v-11c0-2-0.3-3.4-0.9-4.2c-0.6-0.9-1.6-1.3-3-1.3c-1.8,0-3.3,0.9-4.6,2.7v13.8h-3.9v-19.4h3.8   V151.6z"/><path class="st8" d="M440.6,159.3v8.2c0,0.7,0.2,1,0.7,1s1.2-0.3,2.2-1v2.3c-0.9,0.6-1.6,0.9-2.1,1.2c-0.5,0.2-1.1,0.3-1.7,0.3   c-1.6,0-2.6-0.6-2.9-1.9c-1.6,1.3-3.4,1.9-5.2,1.9c-1.3,0-2.5-0.4-3.4-1.3c-0.9-0.9-1.3-2-1.3-3.4c0-1.2,0.4-2.3,1.3-3.3   s2.1-1.7,3.7-2.3l4.9-1.7v-1c0-2.3-1.2-3.5-3.5-3.5c-2.1,0-4.1,1.1-6.1,3.2v-4.2c1.5-1.8,3.6-2.6,6.4-2.6c2.1,0,3.8,0.5,5,1.6   c0.4,0.4,0.8,0.8,1.1,1.4c0.3,0.6,0.6,1.2,0.6,1.7C440.6,156.5,440.6,157.7,440.6,159.3 M436.9,167.1v-5.7l-2.6,1   c-1.3,0.5-2.2,1-2.8,1.6c-0.5,0.5-0.8,1.2-0.8,2s0.2,1.4,0.8,2c0.5,0.5,1.2,0.8,2,0.8C434.7,168.6,435.8,168.1,436.9,167.1"/><rect x="446.1" y="141.5" class="st8" width="3.8" height="29.4"/><path class="st8" d="M248.8,197.9l-3.2-1.9c-2-1.2-3.4-2.4-4.3-3.6c-0.8-1.2-1.3-2.6-1.3-4.1c0-2.3,0.8-4.2,2.4-5.6   c1.6-1.4,3.7-2.2,6.3-2.2c2.5,0,4.7,0.7,6.8,2.1v4.8c-2.1-2-4.4-3.1-6.8-3.1c-1.4,0-2.5,0.3-3.4,1c-0.9,0.6-1.3,1.4-1.3,2.4   c0,0.9,0.3,1.7,1,2.5c0.6,0.8,1.7,1.6,3.1,2.4l3.2,1.9c3.6,2.1,5.4,4.9,5.4,8.2c0,2.4-0.8,4.3-2.4,5.7c-1.6,1.5-3.6,2.2-6.2,2.2   c-2.9,0-5.5-0.9-7.9-2.7v-5.3c2.3,2.9,4.9,4.3,7.9,4.3c1.3,0,2.4-0.4,3.3-1.1c0.9-0.7,1.3-1.7,1.3-2.8   C252.6,201.2,251.4,199.5,248.8,197.9"/><path class="st8" d="M274.4,205.7v3.8c-1.9,0.7-3.8,1.1-5.6,1.1c-3,0-5.5-0.9-7.3-2.7s-2.7-4.2-2.7-7.2s0.9-5.5,2.6-7.4   c1.8-1.9,4.1-2.8,6.9-2.8c1,0,1.9,0.1,2.7,0.3c0.8,0.2,1.8,0.5,2.9,1.1v4.1c-1.9-1.2-3.7-1.9-5.4-1.9c-1.7,0-3.1,0.6-4.3,1.8   c-1.1,1.2-1.7,2.8-1.7,4.6c0,2,0.6,3.6,1.8,4.7c1.2,1.2,2.8,1.8,4.8,1.8C270.8,207,272.5,206.5,274.4,205.7"/><path class="st8" d="M277.8,180.8h3.8v12.6c1.6-2,3.6-2.9,6-2.9c1.3,0,2.5,0.3,3.5,1c1,0.6,1.8,1.5,2.3,2.7   c0.5,1.1,0.8,2.8,0.8,5.1v11h-3.8v-12c0-1.4-0.3-2.6-1-3.4c-0.7-0.9-1.6-1.3-2.8-1.3c-0.8,0-1.6,0.2-2.4,0.7   c-0.7,0.4-1.6,1.2-2.5,2.2v13.9h-3.8v-29.6H277.8z"/><path class="st8" d="M307.8,190.8c2.9,0,5.4,1,7.3,2.9c2,1.9,2.9,4.3,2.9,7.2c0,2.8-1,5.1-3,7c-2,1.8-4.5,2.8-7.5,2.8   c-2.9,0-5.3-0.9-7.3-2.8c-2-1.9-2.9-4.2-2.9-7s1-5.2,3-7.1C302.4,191.7,304.9,190.8,307.8,190.8 M307.6,194.2   c-1.8,0-3.4,0.6-4.5,1.8c-1.2,1.2-1.8,2.7-1.8,4.6c0,1.9,0.6,3.4,1.8,4.5c1.2,1.2,2.8,1.8,4.7,1.8c1.9,0,3.4-0.6,4.6-1.8   s1.8-2.7,1.8-4.6c0-1.8-0.6-3.4-1.9-4.6C311.1,194.8,309.5,194.2,307.6,194.2"/><path class="st8" d="M330.8,190.8c2.9,0,5.4,1,7.3,2.9s2.9,4.3,2.9,7.2c0,2.8-1,5.1-3,7c-2,1.8-4.5,2.8-7.5,2.8   c-2.9,0-5.3-0.9-7.3-2.8c-2-1.9-2.9-4.2-2.9-7s1-5.2,3-7.1C325.3,191.7,327.8,190.8,330.8,190.8 M330.6,194.2   c-1.8,0-3.4,0.6-4.5,1.8c-1.2,1.2-1.8,2.7-1.8,4.6c0,1.9,0.6,3.4,1.8,4.5c1.2,1.2,2.8,1.8,4.7,1.8c1.9,0,3.4-0.6,4.6-1.8   s1.8-2.7,1.8-4.6c0-1.8-0.6-3.4-1.9-4.6C334,194.8,332.4,194.2,330.6,194.2"/><rect x="344.5" y="180.8" class="st8" width="3.8" height="29.4"/><path class="st28" d="M116.2,163.5c-5.8,2-12.2,3.1-19,2.9c-18.5,0.1-38.3-10.7-50.5-28.6c-0.3-0.2-0.5-0.4-0.5-0.4   C-0.4,104.1,14,58.3,16.4,51.7c-11,17.8-17,38.9-16.4,60c0.3,14.6,3.6,29.3,9.7,42.7C12.9,157.9,54.1,200.2,116.2,163.5"/><path class="st20" d="M215.9,125.7c0-0.5,0-1.1-0.1-1.6c0-0.3,0-0.5,0-0.5v0.1c0-0.7-0.1-1.4-0.2-2.1c-2.4-18-18.2-30.9-35.7-29.3   c-0.9,0-1.8,0.1-2.7,0.2c-15.4,2-25.9,13.7-27.3,28.9l-0.3,1.5c0,0,0,0.1,0,0.3v-0.1c0,0.4,0,1.2-0.1,2.3l0,0   c-0.1,1.9-0.3,4.8-0.8,8.4c-2.8,21.6-14.5,68.2-64.4,82.4c1.2,0.3,2.4,0.6,3.6,0.8c24.3,5,49.9,1.4,72-9.9   c22.1-11.3,39.9-30.2,50.1-52.7c1.8-4,2.9-6.5,4-10.2c1.3-4.3,1.9-8.5,1.9-12.5C216,130.5,215.9,127.7,215.9,125.7"/><path class="st11" d="M148.7,133.9c0.5-3.6,0.7-6.5,0.8-8.5c0-1.1,0.1-1.8,0.1-2.3v0.1c0,0,0,0,0,0.1c0,0.2-0.1,0.6-0.2,1   c-0.4,2.3-1.3,6.7-2.6,9.9c-0.4,1.1-0.8,2.1-1.3,3.2l-0.1,0.2c-5.1,11.2-15.6,21.1-29.2,25.9c-62.1,36.7-103.4-5.6-106.5-9   c0.9,2,1.8,4,2.8,5.9c0.1,0.2,0.2,0.3,0.3,0.5c0.4,0.9,0.9,1.7,1.4,2.5c2.8,5,5.9,9.5,9,13.6c0.7,0.9,1.5,1.9,2.3,2.8   c14.8,17.7,35.2,30.6,57.7,36.1c0.3,0.1,0.6,0.2,0.9,0.2c0.1,0,0.1,0,0.2,0l0,0C134.2,202.1,145.9,155.4,148.7,133.9"/><path class="st13" d="M207.5,60.6L207.5,60.6c-11-22.1-29.6-40.2-51.9-50.5c-6.9-3.2-14.1-5.7-21.5-7.3c-0.3-0.1-0.6-0.1-1-0.2   c-10.3-2.3-40.6-4.2-72.9,38l0,0c8-7.6,17.7-13.8,28.6-17.9c18.8-7.1,41-8.1,61.8-1.1c20.8,6.9,39.9,21.3,52.7,41.2l0,0   c0.9,1.4,2.4,2.1,3.5,1.6C207.9,63.9,208.1,62.3,207.5,60.6"/><path class="st0" d="M83.4,3.1c-24,5.8-45.8,20.1-60.8,39.7c-2.2,2.9-4.3,5.9-6.2,9c-2.4,6.7-16.8,52.4,29.8,85.7   c0,0,0.2,0.1,0.5,0.4l0,0c-5.4-7.9-9.3-17.3-10.8-27.6c-2.9-16.5,0.2-34.9,9.5-50.9c3.9-6.8,8.9-13.2,14.8-18.8   c32.3-42.2,62.6-40.3,72.9-38c0.4,0.1,0.7,0.1,1,0.2C117.5-1,99.9-0.9,83.4,3.1"/></g></svg>