<svg xmlns="http://www.w3.org/2000/svg" xmlns:xlink="http://www.w3.org/1999/xlink" id="Layer_1" x="0px" y="0px" viewBox="0 0 100 100" style="enable-background:new 0 0 100 100;" xml:space="preserve"><style type="text/css">	.st0{clip-path:url(#SVGID_2_);}	.st1{fill:#E2F3F7;stroke:#D3D3D3;stroke-width:0.7371;stroke-miterlimit:10;}	.st2{fill:#BC002D;}	.st3{clip-path:url(#SVGID_4_);}	.st4{fill:#B10001;}	.st5{fill:#FFFFFF;}	.st6{fill:#E2F3F7;}	.st7{fill:#010066;}	.st8{fill:#FFB100;}	.st9{opacity:0.1;enable-background:new    ;}</style><g>	<defs>		<circle id="SVGID_1_" cx="50" cy="50.1" r="49.9"></circle>	</defs>	<clipPath id="SVGID_2_">		<use xlink:href="#SVGID_1_" style="overflow:visible;"></use>	</clipPath>	<g class="st0">		<rect id="_x32__3_" x="-25" y="-0.1" class="st1" width="150.1" height="100.1"></rect>		<circle id="_x31__4_" class="st2" cx="50" cy="49.9" r="24.7"></circle>	</g>	<g class="st0">		<g>			<defs>				<path id="SVGID_3_" d="M133.3,106H-9.5c-4.5,0-8.1-3.7-8.1-8.1V8.1c0-4.5,3.7-8.1,8.1-8.1h142.8c4.5,0,8.1,3.7,8.1,8.1v89.8     C141.4,102.4,137.8,106,133.3,106z"></path>			</defs>			<clipPath id="SVGID_4_">				<use xlink:href="#SVGID_3_" style="overflow:visible;"></use>			</clipPath>			<g class="st3">				<rect id="_x31_1_1_" x="-27.7" class="st4" width="214.5" height="107.3"></rect>				<rect id="_x31_0_1_" x="-27.7" y="99.5" class="st5" width="214.5" height="7.6"></rect>				<rect id="_x39__1_" x="-27.7" y="84.3" class="st6" width="214.5" height="7.6"></rect>				<rect id="_x38__1_" x="-27.7" y="69" class="st6" width="214.5" height="7.6"></rect>				<rect id="_x37__1_" x="-27.7" y="53.6" class="st6" width="214.5" height="7.6"></rect>				<rect id="_x36__1_" x="-27.7" y="38.3" class="st6" width="214.5" height="7.6"></rect>				<rect id="_x35__1_" x="-27.7" y="23.1" class="st6" width="214.5" height="7.6"></rect>				<rect id="_x34__2_" x="-27.7" y="7.6" class="st6" width="214.5" height="7.6"></rect>				<rect id="_x33__1_" x="-27.7" class="st7" width="83.8" height="61.2"></rect>				<path id="_x32__1_" class="st8" d="M24.8,21.6c-7.8,0-14.2,6.4-14.2,14.2S17,50,24.8,50c2.8,0,5.5-0.8,7.6-2.3     c-1.3,0.5-2.6,0.7-4.1,0.7c-7,0-12.6-5.6-12.6-12.5s5.7-12.6,12.6-12.6c1.6,0,3,0.3,4.4,0.8C30.5,22.5,27.8,21.6,24.8,21.6z"></path>				<path id="_x31__3_" class="st8" d="M48.3,43.1l-6-3.1l1.8,6.4l-4-5.4l-1.3,6.5L37.6,41l-4,5.3l1.8-6.4l-6,3.1l4.4-5L27,38.3     l6.3-2.6L27,33.1l6.8,0.3l-4.4-5l6,3.1l-1.8-6.4l4,5.4l1.3-6.5l1.3,6.5l4-5.3l-1.8,6.4l6-3.1l-4.4,5l6.8-0.3l-6.3,2.6l6.3,2.6     l-6.8-0.3L48.3,43.1z"></path>			</g>		</g>	</g></g><path class="st9" d="M62.7,1.7C58.6,0.7,50,0.1,50,0.1s14.1,25.1,13.7,49.3C63.2,75.2,50,100.1,50,100.1s9.9-0.2,17.3-3.1 C86.9,89.4,100,71.6,100,50.1C100,26.9,84.2,7.3,62.7,1.7z"></path></svg>