<svg xmlns="http://www.w3.org/2000/svg" xmlns:xlink="http://www.w3.org/1999/xlink" id="Layer_1" x="0px" y="0px" viewBox="0 0 100 100" style="enable-background:new 0 0 100 100;" xml:space="preserve"><style type="text/css">	.st0{fill:url(#SVGID_1_);}	.st1{fill:url(#SVGID_4_);}	.st2{clip-path:url(#SVGID_6_);}	.st3{fill:url(#SVGID_7_);}	.st4{clip-path:url(#SVGID_9_);}	.st5{fill:#07294D;}	.st6{fill:#005AA9;}	.st7{fill:#505C7F;}	.st8{fill:#FFFFFF;}	.st9{fill:#80A139;}	.st10{fill:#C01C24;}	.st11{fill:#CA801E;}	.st12{fill:#0081C2;}	.st13{fill:#005A80;}	.st14{fill:#FFFFFF;stroke:#FFFFFF;stroke-miterlimit:10;}	.st15{fill:none;stroke:#00ADEE;stroke-width:4;stroke-miterlimit:10;}	.st16{fill:none;stroke:#A5CD39;stroke-width:4;stroke-miterlimit:10;}	.st17{fill:none;stroke:#EC1C24;stroke-width:4;stroke-miterlimit:10;}	.st18{fill:none;stroke:#FFFFFF;stroke-width:2;stroke-miterlimit:10;}	.st19{fill:#FFFFFF;stroke:#FFFFFF;stroke-width:0.5;stroke-miterlimit:10;}	.st20{opacity:0.39;fill:none;stroke:#505C7F;stroke-miterlimit:10;}	.st21{opacity:0.39;fill:#505C7F;}	.st22{fill:none;stroke:#FFFFFF;stroke-width:0.5;stroke-miterlimit:10;}	.st23{fill:#0087C8;}	.st24{fill:#005A83;}	.st25{fill:#80A739;}	.st26{fill:#D0801E;}	.st27{fill:#C61C24;}	.st28{fill-rule:evenodd;clip-rule:evenodd;fill:#07294D;}	.st29{fill:none;stroke:#C5C5C5;stroke-miterlimit:10;}	.st30{fill:#00ADEE;}	.st31{fill:none;stroke:#00ADEE;stroke-width:0.9436;stroke-miterlimit:10;}	.st32{fill:none;stroke:#C5C5C5;stroke-width:0.8602;stroke-miterlimit:10;}	.st33{fill:#A5CD39;}	.st34{fill:none;stroke:#FFFFFF;stroke-width:1.049;stroke-miterlimit:10;}	.st35{fill:#07294D;stroke:#FFFFFF;stroke-width:1.049;stroke-miterlimit:10;}	.st36{fill:#065085;}	.st37{clip-path:url(#SVGID_11_);}	.st38{fill:#B7D8DC;}	.st39{fill:#CFE5E9;}	.st40{fill:none;stroke:#00BFFF;stroke-width:3.0677;stroke-linecap:round;stroke-miterlimit:10;}	.st41{fill:#E2F3F7;}	.st42{fill:#F8FAFF;}	.st43{fill:none;stroke:#000000;stroke-width:4;stroke-miterlimit:10;}	.st44{fill:#EC1C24;}	.st45{fill:#F0F0F0;}	.st46{opacity:5.000000e-02;}	.st47{fill:#D32027;}	.st48{fill:#EFECEC;}	.st49{fill:#E63026;}	.st50{fill:#2B479D;}	.st51{fill:#0B0B0B;}	.st52{fill:#F6921E;}	.st53{fill:#F6A759;}	.st54{fill:#252F6B;}	.st55{fill:#D32030;}	.st56{fill:#E7E7E7;}	.st57{fill:#B52025;}	.st58{fill:#252F6C;}	.st59{fill:#D71F28;}	.st60{fill:#C42126;}	.st61{fill:#DC3027;}	.st62{fill:#283991;}	.st63{fill:#EFEFEF;}	.st64{fill:#DEEFF3;}	.st65{opacity:0.13;fill:#51B9DC;enable-background:new    ;}	.st66{clip-path:url(#SVGID_13_);}	.st67{fill:none;}	.st68{fill:none;stroke:#F6921E;stroke-width:7.3112;stroke-linecap:round;stroke-miterlimit:10;}	.st69{fill:#E4A97B;}	.st70{fill:none;stroke:#FAC07C;stroke-width:3.6556;stroke-linecap:round;stroke-miterlimit:10;}	.st71{clip-path:url(#SVGID_15_);}	.st72{fill:#C67B1B;}	.st73{fill:#FFFFFF;stroke:#005AA9;stroke-width:3.5415;stroke-miterlimit:10;}	.st74{opacity:0.13;}	.st75{fill:#51BDE0;}	.st76{fill:#FFB0B9;}	.st77{fill:#DB98A6;}	.st78{fill:#065080;}	.st79{fill:#FFA0AC;}	.st80{fill:#00BFFF;}	.st81{fill:#0D3559;}	.st82{fill:#0A80B2;}	.st83{fill:#041B30;}	.st84{opacity:0.2;fill:#0098DA;}	.st85{opacity:0.5;clip-path:url(#SVGID_15_);}	.st86{fill:#8FA3BA;}	.st87{fill:#A3B7CE;}	.st88{clip-path:url(#SVGID_17_);fill:none;}	.st89{opacity:0.9;fill:url(#SVGID_20_);}	.st90{opacity:0.9;fill:#00ADEE;}	.st91{opacity:0.9;fill:url(#SVGID_21_);}	.st92{fill:url(#SVGID_22_);}	.st93{clip-path:url(#SVGID_28_);fill:none;}	.st94{opacity:0.1;}</style><g>	<circle class="st41" cx="49.9" cy="50.2" r="50"></circle>	<path class="st44" d="M-0.1,50.2c0-27.6,22.4-50,50-50s50,22.4,50,50"></path>	<g>		<path class="st45" d="M30.3,26.3c0-7.3,5.1-13.4,12-14.9C41.2,11.2,40.2,11,39,11c-8.4,0-15.2,6.8-15.2,15.2S30.6,41.5,39,41.5   c1.1,0,2.2-0.1,3.3-0.4C35.5,39.6,30.3,33.5,30.3,26.3z"></path>		<polygon class="st45" points="49.9,12.1 51,15.4 54.5,15.4 51.6,17.5 52.7,20.8 49.9,18.8 47.1,20.8 48.2,17.5 45.3,15.4    48.8,15.4   "></polygon>		<polygon class="st45" points="41.4,18.6 42.5,22 46,22 43.2,24 44.3,27.3 41.4,25.3 38.6,27.3 39.7,24 36.9,22 40.4,22   "></polygon>		<polygon class="st45" points="58.4,18.6 59.5,22 62.9,22 60.1,24 61.2,27.3 58.4,25.3 55.5,27.3 56.6,24 53.8,22 57.3,22   "></polygon>		<polygon class="st45" points="55.1,28.4 56.2,31.7 59.7,31.7 56.9,33.8 57.9,37.1 55.1,35.1 52.3,37.1 53.4,33.8 50.5,31.7    54,31.7   "></polygon>		<polygon class="st45" points="44.7,28.4 45.8,31.7 49.3,31.7 46.4,33.8 47.5,37.1 44.7,35.1 41.9,37.1 42.9,33.8 40.1,31.7    43.6,31.7   "></polygon>	</g>	<path class="st94" d="M100.1,49.8c0,21.5-13.6,39.9-32.7,46.9c-5.4,2-17.3,3.1-17.3,3.1s13.2-24.9,13.7-50.7  C64.2,25,50.1-0.2,50.1-0.2s8.6,0.6,12.7,1.6C84.2,7.1,100.1,26.6,100.1,49.8z"></path></g></svg>