<?xml version="1.0" encoding="utf-8"?>
<!-- Generator: Adobe Illustrator 22.0.0, SVG Export Plug-In . SVG Version: 6.00 Build 0)  -->
<svg version="1.1" xmlns="http://www.w3.org/2000/svg" xmlns:xlink="http://www.w3.org/1999/xlink" x="0px" y="0px"
	 viewBox="0 0 60 60" style="enable-background:new 0 0 60 60;" xml:space="preserve">
<style type="text/css">
	.st0{fill:#F6921E;}
	.st1{fill:url(#SVGID_1_);}
	.st2{opacity:0.2;}
	.st3{fill:none;stroke:#F6921E;stroke-width:1.176;stroke-miterlimit:10;stroke-dasharray:9.9753,9.9753;}
	.st4{fill:#FEF8E8;}
	.st5{opacity:0.15;}
	.st6{fill:none;}
	.st7{fill-rule:evenodd;clip-rule:evenodd;fill:#22C8FF;}
	.st8{opacity:0.15;fill:#00BFFF;}
	.st9{opacity:0.1;fill:#005AA9;}
	.st10{fill:url(#SVGID_8_);}
	.st11{clip-path:url(#SVGID_10_);fill:#A5CD39;}
	.st12{fill:none;stroke:#FFFFFF;stroke-width:1.6667;stroke-linecap:round;stroke-miterlimit:10;}
	.st13{fill:none;stroke:#FFFFFF;stroke-width:2;stroke-miterlimit:10;}
	.st14{fill:#FFFFFF;}
	.st15{fill:url(#SVGID_11_);}
	.st16{opacity:0.1;fill:#00BFFF;stroke:#FFFFFF;stroke-width:3;stroke-miterlimit:10;}
	.st17{fill:#07294D;}
	.st18{fill:#005AA9;}
	.st19{opacity:0.5;}
	.st20{fill:#B9BABD;}
	.st21{fill:url(#SVGID_14_);}
	.st22{opacity:0.1;fill:#00BFFF;}
	.st23{opacity:0.1;}
	.st24{clip-path:url(#SVGID_18_);}
	.st25{opacity:0.56;fill:url(#SVGID_19_);}
	.st26{opacity:0.56;fill:url(#SVGID_20_);}
	.st27{opacity:0.5;fill:url(#SVGID_21_);}
	.st28{opacity:0.43;fill:url(#SVGID_22_);}
	.st29{opacity:0.43;fill:url(#SVGID_23_);}
	.st30{opacity:0.43;fill:url(#SVGID_24_);}
	.st31{opacity:0.29;fill:url(#SVGID_25_);}
	.st32{clip-path:url(#SVGID_27_);}
	.st33{opacity:0.56;fill:url(#SVGID_28_);}
	.st34{opacity:0.56;fill:url(#SVGID_29_);}
	.st35{opacity:0.5;fill:url(#SVGID_30_);}
	.st36{opacity:0.43;fill:url(#SVGID_31_);}
	.st37{opacity:0.43;fill:url(#SVGID_32_);}
	.st38{opacity:0.43;fill:url(#SVGID_33_);}
	.st39{opacity:0.29;fill:url(#SVGID_34_);}
	.st40{opacity:0.4;}
	.st41{fill:none;stroke:#F6921E;stroke-width:2;stroke-linecap:round;stroke-miterlimit:10;stroke-dasharray:1.9987,9.9935;}
	.st42{opacity:0.2;fill:url(#SVGID_35_);}
	.st43{fill:#00BFFF;}
	.st44{fill:#A5CD39;}
	.st45{clip-path:url(#SVGID_37_);}
	.st46{opacity:0.1;fill:#FFFFFF;}
	.st47{fill:url(#SVGID_40_);}
	.st48{fill:#FF0066;}
	.st49{opacity:0.67;}
	.st50{opacity:0.7;}
	.st51{clip-path:url(#SVGID_46_);fill:url(#SVGID_47_);}
	.st52{opacity:0.1;fill:#A5CD39;}
	.st53{opacity:0.3;fill:#FFFFFF;}
	.st54{fill:#EC1C24;}
	.st55{opacity:0.2;fill:none;stroke:#A5CD39;stroke-width:2.7587;stroke-miterlimit:10;}
	.st56{opacity:0.2;fill:none;stroke:#F6921E;stroke-width:2.7587;stroke-miterlimit:10;}
	.st57{fill:url(#SVGID_48_);}
	.st58{fill:url(#SVGID_49_);}
	.st59{fill:#D0D0D0;}
	.st60{fill:none;stroke:#00BFFF;stroke-width:1.6667;stroke-linecap:round;stroke-miterlimit:10;}
	.st61{opacity:0.15;fill:#F6921E;}
	.st62{fill:none;stroke:#F6921E;stroke-width:1.6667;stroke-linecap:round;stroke-miterlimit:10;}
	.st63{opacity:0.15;fill:#A5CD39;}
	.st64{fill:none;stroke:#A5CD39;stroke-width:1.6667;stroke-linecap:round;stroke-miterlimit:10;}
	.st65{opacity:0.6;}
	.st66{opacity:0.15;fill:#EC1C24;}
	.st67{fill:none;stroke:#EC1C24;stroke-width:1.6667;stroke-linecap:round;stroke-miterlimit:10;}
	.st68{opacity:0.2;fill:#F6921E;}
	.st69{opacity:0.15;fill:#008FD1;}
	.st70{fill:#C8C9CA;}
	.st71{opacity:0.34;}
	.st72{fill:#008FD1;}
	.st73{fill:none;stroke:#07294D;stroke-width:1.1746;stroke-miterlimit:10;}
	.st74{fill:#88B038;}
	.st75{opacity:0.48;fill:#88B038;}
	.st76{fill:#BC7B1B;}
	.st77{fill:none;stroke:#07294D;stroke-width:1.1744;stroke-linecap:round;stroke-miterlimit:10;}
	.st78{fill:#DA9F7B;}
	.st79{opacity:0.42;}
	.st80{fill:#DA801D;}
	
		.st81{opacity:0.26;fill:none;stroke:#FFFFFF;stroke-width:0.783;stroke-linecap:round;stroke-linejoin:round;stroke-miterlimit:10;}
	.st82{opacity:0.26;fill:#FFFFFF;}
	.st83{opacity:0.61;clip-path:url(#SVGID_83_);}
	.st84{opacity:0.39;}
	.st85{fill:#B3B5B6;}
	.st86{opacity:0.2;fill:#008FD1;}
	.st87{opacity:0.21;}
	.st88{clip-path:url(#SVGID_85_);}
	.st89{fill:#01598C;}
	.st90{fill:none;stroke:#07294D;stroke-width:0.7812;stroke-miterlimit:10;}
	.st91{fill:none;stroke:#005AA9;stroke-width:1.1279;stroke-linecap:round;stroke-linejoin:round;stroke-miterlimit:10;}
	.st92{fill:#065080;}
	.st93{fill:#86E0FC;}
	.st94{fill:none;stroke:#86E0FC;stroke-width:0.8014;stroke-linecap:round;stroke-linejoin:round;stroke-miterlimit:10;}
	.st95{opacity:0.18;fill:#DA9F7B;}
	.st96{opacity:0.45;fill:#88B038;}
	.st97{fill:none;stroke:#A5CD39;stroke-width:1.253;stroke-linecap:round;stroke-linejoin:round;stroke-miterlimit:10;}
	.st98{fill:#88B038;stroke:#A5CD39;stroke-width:1.253;stroke-linecap:round;stroke-linejoin:round;stroke-miterlimit:10;}
	.st99{fill:#FFFFFF;stroke:#005AA9;stroke-width:1.253;stroke-linecap:round;stroke-linejoin:round;stroke-miterlimit:10;}
	.st100{fill:none;stroke:#005AA9;stroke-width:1.253;stroke-linecap:round;stroke-linejoin:round;stroke-miterlimit:10;}
	.st101{fill:#F3F3F3;}
	.st102{fill:#F40208;}
	.st103{fill:#025BA7;}
	.st104{fill:#2B8FCC;}
	.st105{fill:none;stroke:#005AA9;stroke-width:0.8298;stroke-linecap:round;stroke-linejoin:round;stroke-miterlimit:10;}
	.st106{fill:#FFFFFF;stroke:#005AA9;stroke-width:0.8298;stroke-linecap:round;stroke-linejoin:round;stroke-miterlimit:10;}
	.st107{fill:none;stroke:#FFFFFF;stroke-width:0.8298;stroke-linecap:round;stroke-linejoin:round;stroke-miterlimit:10;}
	.st108{opacity:0.29;}
	.st109{fill:#CDDCDE;}
	.st110{opacity:0.3;}
	.st111{fill:#FF939C;}
	.st112{fill:#DB9DA6;}
	
		.st113{opacity:0.17;fill:none;stroke:#2B8FCC;stroke-width:0.8301;stroke-linecap:round;stroke-linejoin:round;stroke-miterlimit:10;}
	.st114{fill:#D68023;}
	.st115{opacity:0.57;fill:#DA9F7B;}
	.st116{opacity:0.26;}
	.st117{fill:#CE1C24;}
	.st118{opacity:0.3;fill:#01598C;}
	.st119{opacity:0.3;fill:none;stroke:#2B8FCC;stroke-width:0.1467;stroke-miterlimit:10;}
	.st120{clip-path:url(#SVGID_87_);}
	.st121{opacity:0.2;fill:url(#SVGID_88_);}
	.st122{opacity:0.2;fill:url(#SVGID_89_);}
	.st123{opacity:0.2;fill:url(#SVGID_90_);}
	.st124{opacity:0.2;fill:url(#SVGID_91_);}
	.st125{opacity:0.2;fill:url(#SVGID_92_);}
	.st126{opacity:0.2;fill:url(#SVGID_93_);}
	.st127{opacity:0.2;fill:url(#SVGID_94_);}
	.st128{opacity:0.2;fill:url(#SVGID_95_);}
	.st129{opacity:0.2;fill:url(#SVGID_96_);}
	.st130{opacity:0.2;fill:url(#SVGID_97_);}
	.st131{opacity:0.2;fill:url(#SVGID_98_);}
	.st132{opacity:0.2;fill:url(#SVGID_99_);}
	.st133{opacity:0.2;fill:url(#SVGID_100_);}
	.st134{opacity:0.2;fill:url(#SVGID_101_);}
	.st135{opacity:0.2;fill:url(#SVGID_102_);}
	.st136{opacity:0.15;fill:url(#SVGID_103_);}
	.st137{opacity:0.35;fill:#00BFFF;}
	.st138{clip-path:url(#SVGID_105_);}
	.st139{opacity:0.2;fill:url(#SVGID_106_);}
	.st140{opacity:0.2;fill:url(#SVGID_107_);}
	.st141{opacity:0.2;fill:url(#SVGID_108_);}
	.st142{opacity:0.2;fill:url(#SVGID_109_);}
	.st143{opacity:0.2;fill:url(#SVGID_110_);}
	.st144{opacity:0.2;fill:url(#SVGID_111_);}
	.st145{opacity:0.2;fill:url(#SVGID_112_);}
	.st146{opacity:0.2;fill:url(#SVGID_113_);}
	.st147{opacity:0.2;fill:url(#SVGID_114_);}
	.st148{opacity:0.2;fill:url(#SVGID_115_);}
	.st149{opacity:0.2;fill:url(#SVGID_116_);}
	.st150{opacity:0.2;fill:url(#SVGID_117_);}
	.st151{opacity:0.2;fill:url(#SVGID_118_);}
	.st152{opacity:0.2;fill:url(#SVGID_119_);}
	.st153{opacity:0.2;fill:url(#SVGID_120_);}
	.st154{opacity:0.15;fill:url(#SVGID_121_);}
	.st155{fill:#F3FCFF;}
	.st156{fill:#E3F7FC;}
	.st157{fill:#D2F1F9;}
	.st158{fill:#F8BD7B;}
	.st159{fill:#E6E7E8;}
	.st160{fill:#A6CE38;}
	.st161{fill:#D1D3D4;}
	.st162{opacity:0.2;fill:#00ADEF;enable-background:new    ;}
	.st163{clip-path:url(#SVGID_123_);}
	.st164{fill:#0159AA;}
	.st165{fill:#F8931D;}
	.st166{fill:#FABCA8;}
	.st167{fill:#FAC1B5;}
	.st168{opacity:0.33;}
	.st169{fill:#B70F1B;}
	.st170{fill:none;stroke:#07294D;stroke-width:0.8117;stroke-miterlimit:10;}
	.st171{fill:none;stroke:#07294D;stroke-width:0.8117;stroke-linecap:round;stroke-linejoin:round;stroke-miterlimit:10;}
	.st172{fill:#CE1C24;stroke:#B70F1B;stroke-width:0.8117;stroke-miterlimit:10;}
	.st173{fill:#CE1C24;stroke:#B70F1B;stroke-width:0.5411;stroke-linejoin:round;stroke-miterlimit:10;}
	.st174{fill:#C3CED1;}
	.st175{fill:#C9CACB;}
	.st176{fill:none;stroke:#07294D;stroke-width:0.9767;stroke-miterlimit:10;}
	.st177{opacity:0.48;fill:#89B138;}
	.st178{fill:#BD7B1B;}
	.st179{fill:none;stroke:#07294D;stroke-width:0.9766;stroke-linecap:round;stroke-miterlimit:10;}
	.st180{opacity:0.18;}
	.st181{fill:#DBA07B;}
	.st182{fill:#E87F18;}
	.st183{fill:#0090D2;}
	
		.st184{opacity:0.26;fill:none;stroke:#FFFFFF;stroke-width:0.6512;stroke-linecap:round;stroke-linejoin:round;stroke-miterlimit:10;}
	.st185{opacity:0.61;clip-path:url(#SVGID_125_);}
	
		.st186{opacity:0.17;fill:none;stroke:#2B90CD;stroke-width:0.9745;stroke-linecap:round;stroke-linejoin:round;stroke-miterlimit:10;}
	.st187{opacity:0.57;fill:#F6921E;}
	.st188{fill:none;stroke:#005AA9;stroke-width:0.8437;stroke-linecap:round;stroke-linejoin:round;stroke-miterlimit:10;}
	.st189{fill:#F8AA4F;}
	.st190{fill:none;stroke:#86E0FC;stroke-width:0.5994;stroke-linecap:round;stroke-linejoin:round;stroke-miterlimit:10;}
	.st191{opacity:0.18;fill:#DBA07B;}
	.st192{opacity:0.45;fill:#89B138;}
	.st193{opacity:0.8;}
	.st194{fill:url(#);}
	.st195{clip-path:url(#SVGID_127_);fill:#FFD9E1;}
	.st196{clip-path:url(#SVGID_127_);}
	.st197{fill:#0063CA;}
	.st198{clip-path:url(#SVGID_127_);fill:#FFD2DB;}
	.st199{clip-path:url(#SVGID_129_);}
	.st200{fill:#66E9D4;}
	.st201{fill:#303030;}
	.st202{fill:#96EBE4;}
	.st203{clip-path:url(#SVGID_131_);fill:#FFB3C3;}
	.st204{clip-path:url(#SVGID_131_);fill:url(#);}
	.st205{clip-path:url(#SVGID_131_);fill:#FFE2BE;}
	.st206{clip-path:url(#SVGID_133_);}
	.st207{fill:#00DAB8;}
	.st208{clip-path:url(#SVGID_133_);fill:#0063CA;}
	.st209{clip-path:url(#SVGID_133_);fill:url(#);}
	.st210{clip-path:url(#SVGID_133_);fill:#FFC47D;}
	.st211{clip-path:url(#SVGID_135_);}
	.st212{fill:#FFD2DB;}
	.st213{fill:#EBD700;}
	.st214{fill:#C0F3EF;}
	.st215{opacity:0.1;fill:#F6921E;}
	.st216{opacity:0.1;fill:none;stroke:#07294D;stroke-miterlimit:10;}
	.st217{opacity:0.2;fill:none;stroke:#00BFFF;stroke-width:8;stroke-miterlimit:10;}
	.st218{fill:none;stroke:#00BFFF;stroke-width:8;stroke-linecap:round;stroke-miterlimit:10;}
	.st219{opacity:0.2;fill:#EC1C24;}
	.st220{opacity:0.2;fill:#005AA9;}
	.st221{opacity:0.2;fill:url(#);}
	.st222{opacity:0.1;fill:#EC1C24;}
	.st223{fill:none;stroke:#00BFFF;stroke-width:2;stroke-linecap:round;stroke-miterlimit:10;stroke-dasharray:11.9627,11.9627;}
	.st224{fill:none;stroke:#00BFFF;stroke-width:1.5368;stroke-linecap:round;stroke-miterlimit:10;stroke-dasharray:9.1924,9.1924;}
	.st225{fill:none;stroke:#00BFFF;stroke-width:1.0213;stroke-linecap:round;stroke-miterlimit:10;stroke-dasharray:6.1089,6.1089;}
	.st226{fill:none;stroke:#CDDDFF;stroke-width:3;stroke-miterlimit:10;}
	.st227{fill:#C4C4C4;}
	.st228{clip-path:url(#SVGID_145_);}
	.st229{fill:#00BFFF;stroke:#FFFFFF;stroke-miterlimit:10;}
	.st230{fill:none;stroke:#EC1C24;stroke-width:1.5122;stroke-linecap:round;stroke-miterlimit:10;}
	.st231{fill:none;stroke:#FFFFFF;stroke-width:2.9679;stroke-linecap:round;stroke-miterlimit:10;}
	.st232{opacity:0.2;fill:#FFFFFF;}
	.st233{fill:url(#SVGID_152_);}
	.st234{fill:#002545;}
	.st235{fill:url(#SVGID_153_);}
	.st236{fill:none;stroke:#00BFFF;stroke-width:2;stroke-linecap:round;stroke-miterlimit:10;stroke-dasharray:1.9938,9.969;}
	.st237{fill:none;stroke:#00BFFF;stroke-linecap:round;stroke-miterlimit:10;stroke-dasharray:1.9993,9.9964;}
	.st238{fill:none;stroke:#00BFFF;stroke-width:1.5;stroke-linecap:round;stroke-miterlimit:10;stroke-dasharray:1.9935,9.9677;}
	.st239{fill:#FA536D;}
	.st240{fill:#FA6A7D;}
	.st241{fill:#D0314D;}
	.st242{fill:#FF7485;}
	.st243{fill:#FF8694;}
	.st244{opacity:0.7;fill:#FFFFFF;}
	.st245{fill:#F9A50D;}
	.st246{fill:#F96F00;}
	.st247{fill:#F9AF0D;}
	.st248{fill:#F98500;}
	.st249{fill:#F9930D;}
	.st250{fill:#F9C30D;}
	.st251{opacity:0.8;fill:#FFFFFF;}
	.st252{opacity:0.3;fill:#01598D;}
	.st253{fill:#01598D;}
	.st254{fill:#CF1C24;}
	.st255{opacity:0.3;fill:none;stroke:#2B90CD;stroke-width:0.1706;stroke-miterlimit:10;}
	.st256{fill:none;stroke:#005AA9;stroke-width:0.9737;stroke-linecap:round;stroke-linejoin:round;stroke-miterlimit:10;}
	.st257{fill:#FFFFFF;stroke:#005AA9;stroke-width:0.9737;stroke-linecap:round;stroke-linejoin:round;stroke-miterlimit:10;}
	.st258{fill:none;stroke:#FFFFFF;stroke-width:0.9737;stroke-linecap:round;stroke-linejoin:round;stroke-miterlimit:10;}
	.st259{fill:#2B90CD;}
	.st260{fill:#CEDDDF;}
	.st261{fill:#EC1C24;stroke:#EDF5D7;stroke-width:0.25;stroke-miterlimit:10;}
	.st262{fill:#F6921E;stroke:#EDF5D7;stroke-width:0.25;stroke-miterlimit:10;}
	.st263{fill:#00BFFF;stroke:#EDF5D7;stroke-width:0.25;stroke-miterlimit:10;}
	.st264{fill:#FFFBE9;}
	.st265{fill:#EFC2C2;}
	.st266{fill:none;stroke:#FFCB78;stroke-width:4;stroke-miterlimit:10;}
	.st267{fill:none;stroke:#FFCB78;stroke-width:3.3333;stroke-miterlimit:10;}
	.st268{fill:none;stroke:#FFCB78;stroke-width:2.6667;stroke-miterlimit:10;}
	.st269{fill:none;stroke:#FFCB78;stroke-width:2;stroke-miterlimit:10;}
	.st270{fill:#225378;}
	.st271{fill:none;stroke:#000000;stroke-width:3;stroke-miterlimit:10;}
	.st272{fill:none;stroke:#A5CD39;stroke-width:0.9727;stroke-linecap:round;stroke-linejoin:round;stroke-miterlimit:10;}
	.st273{fill:#89B138;stroke:#A5CD39;stroke-width:0.9727;stroke-linecap:round;stroke-linejoin:round;stroke-miterlimit:10;}
	.st274{fill:#FFFFFF;stroke:#005AA9;stroke-width:0.9727;stroke-linecap:round;stroke-linejoin:round;stroke-miterlimit:10;}
	.st275{fill:none;stroke:#005AA9;stroke-width:0.9727;stroke-linecap:round;stroke-linejoin:round;stroke-miterlimit:10;}
	.st276{fill:none;stroke:#07294D;stroke-width:0.9118;stroke-miterlimit:10;}
	.st277{fill:none;stroke:#005AA9;stroke-width:0.9671;stroke-linecap:round;stroke-linejoin:round;stroke-miterlimit:10;}
	.st278{clip-path:url(#SVGID_163_);}
	.st279{opacity:0.3;fill:none;stroke:#2B90CD;stroke-width:0.1475;stroke-miterlimit:10;}
	.st280{opacity:0.61;clip-path:url(#SVGID_165_);}
</style>
<g id="Layer_3">
</g>
<g id="Layer_1">
	<g>
		<g>
			<g>
				<g>
					<g>
						<polygon class="st155" points="56.8,15.3 30,1.6 3.3,15.3 3.3,44.7 30,58.4 56.8,44.7 						"/>
						<g>
							<polygon class="st155" points="3.3,15.3 16.9,22.3 30,15.6 30,1.6 							"/>
							<polygon class="st155" points="56.8,15.3 43.1,22.3 30,15.6 30,1.6 							"/>
						</g>
						<g>
							<polygon class="st156" points="56.8,44.7 43.1,37.7 30,44.4 30,58.4 							"/>
							<polygon class="st157" points="3.3,44.7 16.9,37.7 30,44.4 30,58.4 							"/>
						</g>
					</g>
					<polygon class="st156" points="3.3,15.3 3.3,44.7 13.3,39.8 13.3,20.2 					"/>
					<polygon class="st22" points="56.7,15.3 30,1.6 3.2,15.3 3.2,44.7 30,58.4 56.7,44.7 					"/>
				</g>
			</g>
			<g>
				<path class="st18" d="M53.1,15.9l-1.7-1.2c-0.2-0.2-0.3-0.5-0.1-0.7l5.5-8.2c0.2-0.2,0.5-0.3,0.7-0.1l1.7,1.2
					c0.2,0.2,0.3,0.5,0.1,0.7l-5.5,8.2C53.6,16,53.3,16.1,53.1,15.9z"/>
				<path class="st158" d="M36.2,44.8L31,41.3c-0.4-0.3-0.6-0.9-0.3-1.3l18.1-26.8c0.3-0.4,0.9-0.6,1.3-0.3l5.3,3.5
					c0.4,0.3,0.6,0.9,0.3,1.3L37.6,44.5C37.3,45,36.7,45.1,36.2,44.8z"/>
				<g class="st71">
					
						<rect x="15.6" y="7.2" transform="matrix(0.8435 -0.5371 0.5371 0.8435 -1.8582 10.2847)" class="st43" width="2.2" height="2.2"/>
				</g>
				<g class="st71">
					
						<rect x="8.5" y="21.5" transform="matrix(0.747 -0.6648 0.6648 0.747 -12.4511 11.8156)" class="st43" width="1.5" height="1.5"/>
				</g>
				<g class="st71">
					<rect x="9.6" y="8.4" transform="matrix(0.747 -0.6648 0.6648 0.747 -3.4819 9.2035)" class="st43" width="1.5" height="1.5"/>
				</g>
				<g>
					<g id="XMLID_107_">
						<path class="st14" d="M16.6,34.8l-0.1-0.3c-0.2-2.1,1.4-3.4,2.3-3.8c0.1,0,0.3-0.1,0.5,0c0.9,0.3,1.7,3,1.9,3.5l-0.3,0"/>
					</g>
					<g>
						<path class="st159" d="M2.7,34.7c0,0,1.3-2.4,2.2-3.4c0,0,4.3,3,4.6,4.5c0,0.2,0.2,0.5,0.2,0.7c-0.1,1.3-1.2,2.4-1.2,2.4
							S2.9,35.7,2.7,34.7z"/>
					</g>
					<g>
						<path class="st159" d="M19.4,47.1c0,0,0.8,0.1,1.4-0.4c0.2-0.1,0.3-0.2,0.4-0.4c0.7-1.1,8.4,2.4,11.8,4.5c0,0,2.2,3.2-0.9,3.3
							C32.2,54.1,21.2,49.5,19.4,47.1z"/>
					</g>
					<g>
						<path class="st160" d="M4.9,31.3c0,0,3.8-5.2,5.3-3.7c0,0-0.9,2.7,0.3,4.2s4.7,3,5.2,3c0.5,0,1.4-0.6,2.3-0.7
							c0.9-0.1,3.1-0.1,3.1-0.1l0.9,1.6l4.7,7.2c0,0,2.8,3.3,3.2,3.8c0.4,0.4,3,4.1,3,4.1s-10.3-5.4-11.5-4.4
							c-1.2,0.9-1.7,1.5-3.1-0.2c-1.3-1.7-10.1-7.3-10.1-7.3s1.5-2.2,0.8-3.1S4.9,31.3,4.9,31.3z"/>
					</g>
					<g>
						<path class="st18" d="M2.1,42.1l-1.5-0.2c-0.2,0-0.3-0.2-0.3-0.3s0.2-0.3,0.3-0.3l1.5,0.2c0.2,0,0.3,0.2,0.3,0.3
							C2.4,42,2.3,42.1,2.1,42.1z"/>
					</g>
					<g>
						<path class="st18" d="M5.5,45.4L1,45c-0.2,0-0.3-0.2-0.3-0.3s0.2-0.3,0.3-0.3l4.5,0.4c0.2,0,0.3,0.2,0.3,0.3
							C5.8,45.3,5.7,45.4,5.5,45.4z"/>
					</g>
					<g>
						<path class="st18" d="M4.7,48.3l-2.2-0.2c-0.2,0-0.3-0.2-0.3-0.3s0.2-0.3,0.3-0.3l2.2,0.2C4.9,47.7,5,47.8,5,48
							C5,48.2,4.9,48.3,4.7,48.3z"/>
					</g>
					<g class="st84">
						<path class="st160" d="M20.1,34c0,0,5.1,10,8.5,12.9c0.4,0.4,0.9,0.6,1.4,0.7l0,0c0.3,0.1,1.1,0.3,1.3,0.4c0,0-0.3-0.5-1-1.3
							c-0.3-0.4-0.7-0.8-1.1-1.3c-0.4-0.5-0.8-1-1.3-1.5c-0.1-0.1-0.8-0.9-0.9-1.1c-1.9-2.9-3.3-5-3.7-5.7l-2-3.2L20.1,34z"/>
					</g>
					<g id="XMLID_106_">
						<path class="st14" d="M24.6,41.9L24.6,41.9c0.1,0.2,0.4,0.3,0.6,0.2l1.1-0.6c0.2-0.1,0.3-0.4,0.2-0.6l0,0
							c-0.1-0.2-0.4-0.3-0.6-0.2l-1.1,0.6C24.6,41.4,24.5,41.7,24.6,41.9z"/>
					</g>
					<g id="XMLID_105_">
						<path class="st14" d="M23.4,40.3L23.4,40.3c0.1,0.2,0.4,0.3,0.6,0.2l1.1-0.6c0.2-0.1,0.3-0.4,0.2-0.6l0,0
							c-0.1-0.2-0.4-0.3-0.6-0.2l-1.1,0.6C23.4,39.8,23.3,40.1,23.4,40.3z"/>
					</g>
					<g id="XMLID_104_">
						<path class="st14" d="M22.4,38.6L22.4,38.6c0.1,0.2,0.4,0.3,0.6,0.2l1.1-0.6c0.2-0.1,0.3-0.4,0.2-0.6l0,0
							c-0.1-0.2-0.4-0.3-0.6-0.2L22.6,38C22.4,38.1,22.3,38.4,22.4,38.6z"/>
					</g>
					<g id="XMLID_103_">
						<path class="st14" d="M21.4,36.9L21.4,36.9c0.1,0.2,0.4,0.3,0.6,0.2l1.1-0.6c0.2-0.1,0.3-0.4,0.2-0.6l0,0
							c-0.1-0.2-0.4-0.3-0.6-0.2l-1.1,0.6C21.3,36.4,21.3,36.7,21.4,36.9z"/>
					</g>
					<g>
						<path class="st161" d="M2.7,34.7c0,0-2,2.4-0.7,3.8c1.3,1.3,1.4,1.4,2.9,2.6C6.4,42.3,18,49.1,18,49.1s6.2,4.1,8.1,4.5
							c1.9,0.4,4.6,1.1,6.1,0.5c0,0-10.4-4.5-11.8-6.4c-0.7-0.6-3.7-3.4-4.3-3.7c-0.5-0.3-5.6-4.4-7.4-5.1c-0.2-0.1-0.4-0.2-0.6-0.3
							C6.9,37.9,2.7,35.2,2.7,34.7z"/>
					</g>
					<path class="st162" d="M21.6,46.4c1.2-0.9,11.5,4.4,11.5,4.4s-1.3-1.9-2.2-3.1l-0.7,0.1c-4.7-1-12.7-5.8-14.6-7.4
						c-7-5.5-5.9-11-5.9-11c0.1-0.3,0.2-0.5,0.4-0.7c0.1-0.6,0.2-1,0.2-1c-0.1-0.1-0.2-0.1-0.2-0.2c-0.1,0-0.2-0.1-0.4-0.1
						c-0.4,0-0.9,0.2-1.3,0.5c-0.1,0.1-0.5,0.3-0.5,0.4c-1.1,0.9-2.3,2.4-2.7,2.9c-0.1,0.1-0.2,0.2-0.2,0.2s3.5,3.5,4.2,4.5
						c0.7,0.9-0.7,3-0.7,3s8.8,5.7,10.1,7.4C19.9,47.9,20.4,47.3,21.6,46.4z"/>
				</g>
				<g>
					<circle class="st14" cx="29.8" cy="16.4" r="8.5"/>
					<g>
						<g>
							<defs>
								<circle id="SVGID_162_" cx="29.8" cy="16.4" r="8.5"/>
							</defs>
							<clipPath id="SVGID_1_">
								<use xlink:href="#SVGID_162_"  style="overflow:visible;"/>
							</clipPath>
							<g style="clip-path:url(#SVGID_1_);">
								<path class="st164" d="M36.5,10.9c0,0-1.2,3.4-1.1,3.5c0.1,0.1,3,2.4,3,2.4s0.1-3.9-1.8-5.8"/>
								<path class="st164" d="M32,24.6l1.4-3.6l3.6,0.1C36.9,21.2,34.3,24.6,32,24.6z"/>
								<path class="st164" d="M22.6,21c0,0,3.8,0.2,3.8,0.2l1.3,3.4C27.7,24.7,24.8,24.4,22.6,21z"/>
								<path class="st164" d="M23.2,10.7l1.1,3.7l-3,2.5C21.2,17,20.7,12.8,23.2,10.7z"/>
								<path class="st164" d="M26.6,8.3l3.2,2.3L33,8.4C33,8.4,30.4,7,26.6,8.3z"/>
								<polyline class="st164" points="29.8,13.5 27.1,15.5 28.1,18.7 31.5,18.7 32.6,15.5 								"/>
							</g>
						</g>
					</g>
				</g>
				<path class="st165" d="M55.3,16.4l-5.3-3.5c-0.4-0.3-1-0.2-1.3,0.3L30.7,40c-0.3,0.4-0.2,1,0.3,1.3l1.5,1l14.4-21.7
					c1.8-2.6,5.2-3.3,7.9-1.7l0.8-1.2C55.9,17.3,55.8,16.7,55.3,16.4z"/>
			</g>
		</g>
	</g>
</g>
<g id="Layer_2">
</g>
</svg>
