<?xml version="1.0" encoding="utf-8"?>
<!-- Generator: Adobe Illustrator 22.0.0, SVG Export Plug-In . SVG Version: 6.00 Build 0)  -->
<svg version="1.1" xmlns="http://www.w3.org/2000/svg" xmlns:xlink="http://www.w3.org/1999/xlink" x="0px" y="0px"
	 viewBox="0 0 60 60" style="enable-background:new 0 0 60 60;" xml:space="preserve">
<style type="text/css">
	.st0{fill:#F6921E;}
	.st1{fill:url(#SVGID_1_);}
	.st2{opacity:0.2;}
	.st3{fill:none;stroke:#F6921E;stroke-width:1.176;stroke-miterlimit:10;stroke-dasharray:9.9753,9.9753;}
	.st4{fill:#FEF8E8;}
	.st5{opacity:0.15;}
	.st6{fill:none;}
	.st7{fill-rule:evenodd;clip-rule:evenodd;fill:#22C8FF;}
	.st8{opacity:0.15;fill:#00BFFF;}
	.st9{opacity:0.1;fill:#005AA9;}
	.st10{fill:url(#SVGID_8_);}
	.st11{clip-path:url(#SVGID_10_);fill:#A5CD39;}
	.st12{fill:none;stroke:#FFFFFF;stroke-width:1.6667;stroke-linecap:round;stroke-miterlimit:10;}
	.st13{fill:none;stroke:#FFFFFF;stroke-width:2;stroke-miterlimit:10;}
	.st14{fill:#FFFFFF;}
	.st15{fill:url(#SVGID_11_);}
	.st16{opacity:0.1;fill:#00BFFF;stroke:#FFFFFF;stroke-width:3;stroke-miterlimit:10;}
	.st17{fill:#07294D;}
	.st18{fill:#005AA9;}
	.st19{opacity:0.5;}
	.st20{fill:#B9BABD;}
	.st21{fill:url(#SVGID_14_);}
	.st22{opacity:0.1;fill:#00BFFF;}
	.st23{opacity:0.1;}
	.st24{clip-path:url(#SVGID_18_);}
	.st25{opacity:0.56;fill:url(#SVGID_19_);}
	.st26{opacity:0.56;fill:url(#SVGID_20_);}
	.st27{opacity:0.5;fill:url(#SVGID_21_);}
	.st28{opacity:0.43;fill:url(#SVGID_22_);}
	.st29{opacity:0.43;fill:url(#SVGID_23_);}
	.st30{opacity:0.43;fill:url(#SVGID_24_);}
	.st31{opacity:0.29;fill:url(#SVGID_25_);}
	.st32{clip-path:url(#SVGID_27_);}
	.st33{opacity:0.56;fill:url(#SVGID_28_);}
	.st34{opacity:0.56;fill:url(#SVGID_29_);}
	.st35{opacity:0.5;fill:url(#SVGID_30_);}
	.st36{opacity:0.43;fill:url(#SVGID_31_);}
	.st37{opacity:0.43;fill:url(#SVGID_32_);}
	.st38{opacity:0.43;fill:url(#SVGID_33_);}
	.st39{opacity:0.29;fill:url(#SVGID_34_);}
	.st40{opacity:0.4;}
	.st41{fill:none;stroke:#F6921E;stroke-width:2;stroke-linecap:round;stroke-miterlimit:10;stroke-dasharray:1.9987,9.9935;}
	.st42{opacity:0.2;fill:url(#SVGID_35_);}
	.st43{fill:#00BFFF;}
	.st44{fill:#A5CD39;}
	.st45{clip-path:url(#SVGID_37_);}
	.st46{opacity:0.1;fill:#FFFFFF;}
	.st47{fill:url(#SVGID_40_);}
	.st48{fill:#FF0066;}
	.st49{opacity:0.67;}
	.st50{opacity:0.7;}
	.st51{clip-path:url(#SVGID_46_);fill:url(#SVGID_47_);}
	.st52{opacity:0.1;fill:#A5CD39;}
	.st53{opacity:0.3;fill:#FFFFFF;}
	.st54{fill:#EC1C24;}
	.st55{opacity:0.2;fill:none;stroke:#A5CD39;stroke-width:2.7587;stroke-miterlimit:10;}
	.st56{opacity:0.2;fill:none;stroke:#F6921E;stroke-width:2.7587;stroke-miterlimit:10;}
	.st57{fill:url(#SVGID_48_);}
	.st58{fill:url(#SVGID_49_);}
	.st59{fill:#D0D0D0;}
	.st60{fill:none;stroke:#00BFFF;stroke-width:1.6667;stroke-linecap:round;stroke-miterlimit:10;}
	.st61{opacity:0.15;fill:#F6921E;}
	.st62{fill:none;stroke:#F6921E;stroke-width:1.6667;stroke-linecap:round;stroke-miterlimit:10;}
	.st63{opacity:0.15;fill:#A5CD39;}
	.st64{fill:none;stroke:#A5CD39;stroke-width:1.6667;stroke-linecap:round;stroke-miterlimit:10;}
	.st65{opacity:0.6;}
	.st66{opacity:0.15;fill:#EC1C24;}
	.st67{fill:none;stroke:#EC1C24;stroke-width:1.6667;stroke-linecap:round;stroke-miterlimit:10;}
	.st68{opacity:0.2;fill:#F6921E;}
	.st69{opacity:0.15;fill:#008FD1;}
	.st70{fill:#C8C9CA;}
	.st71{opacity:0.34;}
	.st72{fill:#008FD1;}
	.st73{fill:none;stroke:#07294D;stroke-width:1.1746;stroke-miterlimit:10;}
	.st74{fill:#88B038;}
	.st75{opacity:0.48;fill:#88B038;}
	.st76{fill:#BC7B1B;}
	.st77{fill:none;stroke:#07294D;stroke-width:1.1744;stroke-linecap:round;stroke-miterlimit:10;}
	.st78{fill:#DA9F7B;}
	.st79{opacity:0.42;}
	.st80{fill:#DA801D;}
	
		.st81{opacity:0.26;fill:none;stroke:#FFFFFF;stroke-width:0.783;stroke-linecap:round;stroke-linejoin:round;stroke-miterlimit:10;}
	.st82{opacity:0.26;fill:#FFFFFF;}
	.st83{opacity:0.61;clip-path:url(#SVGID_83_);}
	.st84{opacity:0.39;}
	.st85{fill:#B3B5B6;}
	.st86{opacity:0.2;fill:#008FD1;}
	.st87{opacity:0.21;}
	.st88{clip-path:url(#SVGID_85_);}
	.st89{fill:#01598C;}
	.st90{fill:none;stroke:#07294D;stroke-width:0.7812;stroke-miterlimit:10;}
	.st91{fill:none;stroke:#005AA9;stroke-width:1.1279;stroke-linecap:round;stroke-linejoin:round;stroke-miterlimit:10;}
	.st92{fill:#065080;}
	.st93{fill:#86E0FC;}
	.st94{fill:none;stroke:#86E0FC;stroke-width:0.8014;stroke-linecap:round;stroke-linejoin:round;stroke-miterlimit:10;}
	.st95{opacity:0.18;fill:#DA9F7B;}
	.st96{opacity:0.45;fill:#88B038;}
	.st97{fill:none;stroke:#A5CD39;stroke-width:1.253;stroke-linecap:round;stroke-linejoin:round;stroke-miterlimit:10;}
	.st98{fill:#88B038;stroke:#A5CD39;stroke-width:1.253;stroke-linecap:round;stroke-linejoin:round;stroke-miterlimit:10;}
	.st99{fill:#FFFFFF;stroke:#005AA9;stroke-width:1.253;stroke-linecap:round;stroke-linejoin:round;stroke-miterlimit:10;}
	.st100{fill:none;stroke:#005AA9;stroke-width:1.253;stroke-linecap:round;stroke-linejoin:round;stroke-miterlimit:10;}
	.st101{fill:#F3F3F3;}
	.st102{fill:#F40208;}
	.st103{fill:#025BA7;}
	.st104{fill:#2B8FCC;}
	.st105{fill:none;stroke:#005AA9;stroke-width:0.8298;stroke-linecap:round;stroke-linejoin:round;stroke-miterlimit:10;}
	.st106{fill:#FFFFFF;stroke:#005AA9;stroke-width:0.8298;stroke-linecap:round;stroke-linejoin:round;stroke-miterlimit:10;}
	.st107{fill:none;stroke:#FFFFFF;stroke-width:0.8298;stroke-linecap:round;stroke-linejoin:round;stroke-miterlimit:10;}
	.st108{opacity:0.29;}
	.st109{fill:#CDDCDE;}
	.st110{opacity:0.3;}
	.st111{fill:#FF939C;}
	.st112{fill:#DB9DA6;}
	
		.st113{opacity:0.17;fill:none;stroke:#2B8FCC;stroke-width:0.8301;stroke-linecap:round;stroke-linejoin:round;stroke-miterlimit:10;}
	.st114{fill:#D68023;}
	.st115{opacity:0.57;fill:#DA9F7B;}
	.st116{opacity:0.26;}
	.st117{fill:#CE1C24;}
	.st118{opacity:0.3;fill:#01598C;}
	.st119{opacity:0.3;fill:none;stroke:#2B8FCC;stroke-width:0.1467;stroke-miterlimit:10;}
	.st120{clip-path:url(#SVGID_87_);}
	.st121{opacity:0.2;fill:url(#SVGID_88_);}
	.st122{opacity:0.2;fill:url(#SVGID_89_);}
	.st123{opacity:0.2;fill:url(#SVGID_90_);}
	.st124{opacity:0.2;fill:url(#SVGID_91_);}
	.st125{opacity:0.2;fill:url(#SVGID_92_);}
	.st126{opacity:0.2;fill:url(#SVGID_93_);}
	.st127{opacity:0.2;fill:url(#SVGID_94_);}
	.st128{opacity:0.2;fill:url(#SVGID_95_);}
	.st129{opacity:0.2;fill:url(#SVGID_96_);}
	.st130{opacity:0.2;fill:url(#SVGID_97_);}
	.st131{opacity:0.2;fill:url(#SVGID_98_);}
	.st132{opacity:0.2;fill:url(#SVGID_99_);}
	.st133{opacity:0.2;fill:url(#SVGID_100_);}
	.st134{opacity:0.2;fill:url(#SVGID_101_);}
	.st135{opacity:0.2;fill:url(#SVGID_102_);}
	.st136{opacity:0.15;fill:url(#SVGID_103_);}
	.st137{opacity:0.35;fill:#00BFFF;}
	.st138{clip-path:url(#SVGID_105_);}
	.st139{opacity:0.2;fill:url(#SVGID_106_);}
	.st140{opacity:0.2;fill:url(#SVGID_107_);}
	.st141{opacity:0.2;fill:url(#SVGID_108_);}
	.st142{opacity:0.2;fill:url(#SVGID_109_);}
	.st143{opacity:0.2;fill:url(#SVGID_110_);}
	.st144{opacity:0.2;fill:url(#SVGID_111_);}
	.st145{opacity:0.2;fill:url(#SVGID_112_);}
	.st146{opacity:0.2;fill:url(#SVGID_113_);}
	.st147{opacity:0.2;fill:url(#SVGID_114_);}
	.st148{opacity:0.2;fill:url(#SVGID_115_);}
	.st149{opacity:0.2;fill:url(#SVGID_116_);}
	.st150{opacity:0.2;fill:url(#SVGID_117_);}
	.st151{opacity:0.2;fill:url(#SVGID_118_);}
	.st152{opacity:0.2;fill:url(#SVGID_119_);}
	.st153{opacity:0.2;fill:url(#SVGID_120_);}
	.st154{opacity:0.15;fill:url(#SVGID_121_);}
	.st155{fill:#F3FCFF;}
	.st156{fill:#E3F7FC;}
	.st157{fill:#D2F1F9;}
	.st158{fill:#F8BD7B;}
	.st159{fill:#E6E7E8;}
	.st160{fill:#A6CE38;}
	.st161{fill:#D1D3D4;}
	.st162{opacity:0.2;fill:#00ADEF;enable-background:new    ;}
	.st163{clip-path:url(#SVGID_123_);}
	.st164{fill:#0159AA;}
	.st165{fill:#F8931D;}
	.st166{fill:#FABCA8;}
	.st167{fill:#FAC1B5;}
	.st168{opacity:0.33;}
	.st169{fill:#B70F1B;}
	.st170{fill:none;stroke:#07294D;stroke-width:0.8117;stroke-miterlimit:10;}
	.st171{fill:none;stroke:#07294D;stroke-width:0.8117;stroke-linecap:round;stroke-linejoin:round;stroke-miterlimit:10;}
	.st172{fill:#CE1C24;stroke:#B70F1B;stroke-width:0.8117;stroke-miterlimit:10;}
	.st173{fill:#CE1C24;stroke:#B70F1B;stroke-width:0.5411;stroke-linejoin:round;stroke-miterlimit:10;}
	.st174{fill:#C3CED1;}
	.st175{fill:#C9CACB;}
	.st176{fill:none;stroke:#07294D;stroke-width:0.9767;stroke-miterlimit:10;}
	.st177{opacity:0.48;fill:#89B138;}
	.st178{fill:#BD7B1B;}
	.st179{fill:none;stroke:#07294D;stroke-width:0.9766;stroke-linecap:round;stroke-miterlimit:10;}
	.st180{opacity:0.18;}
	.st181{fill:#DBA07B;}
	.st182{fill:#E87F18;}
	.st183{fill:#0090D2;}
	
		.st184{opacity:0.26;fill:none;stroke:#FFFFFF;stroke-width:0.6512;stroke-linecap:round;stroke-linejoin:round;stroke-miterlimit:10;}
	.st185{opacity:0.61;clip-path:url(#SVGID_125_);}
	
		.st186{opacity:0.17;fill:none;stroke:#2B90CD;stroke-width:0.9745;stroke-linecap:round;stroke-linejoin:round;stroke-miterlimit:10;}
	.st187{opacity:0.57;fill:#F6921E;}
	.st188{fill:none;stroke:#005AA9;stroke-width:0.8437;stroke-linecap:round;stroke-linejoin:round;stroke-miterlimit:10;}
	.st189{fill:#F8AA4F;}
	.st190{fill:none;stroke:#86E0FC;stroke-width:0.5994;stroke-linecap:round;stroke-linejoin:round;stroke-miterlimit:10;}
	.st191{opacity:0.18;fill:#DBA07B;}
	.st192{opacity:0.45;fill:#89B138;}
	.st193{opacity:0.8;}
	.st194{fill:url(#);}
	.st195{clip-path:url(#SVGID_127_);fill:#FFD9E1;}
	.st196{clip-path:url(#SVGID_127_);}
	.st197{fill:#0063CA;}
	.st198{clip-path:url(#SVGID_127_);fill:#FFD2DB;}
	.st199{clip-path:url(#SVGID_129_);}
	.st200{fill:#66E9D4;}
	.st201{fill:#303030;}
	.st202{fill:#96EBE4;}
	.st203{clip-path:url(#SVGID_131_);fill:#FFB3C3;}
	.st204{clip-path:url(#SVGID_131_);fill:url(#);}
	.st205{clip-path:url(#SVGID_131_);fill:#FFE2BE;}
	.st206{clip-path:url(#SVGID_133_);}
	.st207{fill:#00DAB8;}
	.st208{clip-path:url(#SVGID_133_);fill:#0063CA;}
	.st209{clip-path:url(#SVGID_133_);fill:url(#);}
	.st210{clip-path:url(#SVGID_133_);fill:#FFC47D;}
	.st211{clip-path:url(#SVGID_135_);}
	.st212{fill:#FFD2DB;}
	.st213{fill:#EBD700;}
	.st214{fill:#C0F3EF;}
	.st215{opacity:0.1;fill:#F6921E;}
	.st216{opacity:0.1;fill:none;stroke:#07294D;stroke-miterlimit:10;}
	.st217{opacity:0.2;fill:none;stroke:#00BFFF;stroke-width:8;stroke-miterlimit:10;}
	.st218{fill:none;stroke:#00BFFF;stroke-width:8;stroke-linecap:round;stroke-miterlimit:10;}
	.st219{opacity:0.2;fill:#EC1C24;}
	.st220{opacity:0.2;fill:#005AA9;}
	.st221{opacity:0.2;fill:url(#);}
	.st222{opacity:0.1;fill:#EC1C24;}
	.st223{fill:none;stroke:#00BFFF;stroke-width:2;stroke-linecap:round;stroke-miterlimit:10;stroke-dasharray:11.9627,11.9627;}
	.st224{fill:none;stroke:#00BFFF;stroke-width:1.5368;stroke-linecap:round;stroke-miterlimit:10;stroke-dasharray:9.1924,9.1924;}
	.st225{fill:none;stroke:#00BFFF;stroke-width:1.0213;stroke-linecap:round;stroke-miterlimit:10;stroke-dasharray:6.1089,6.1089;}
	.st226{fill:none;stroke:#CDDDFF;stroke-width:3;stroke-miterlimit:10;}
	.st227{fill:#C4C4C4;}
	.st228{clip-path:url(#SVGID_145_);}
	.st229{fill:#00BFFF;stroke:#FFFFFF;stroke-miterlimit:10;}
	.st230{fill:none;stroke:#EC1C24;stroke-width:1.5122;stroke-linecap:round;stroke-miterlimit:10;}
	.st231{fill:none;stroke:#FFFFFF;stroke-width:2.9679;stroke-linecap:round;stroke-miterlimit:10;}
	.st232{opacity:0.2;fill:#FFFFFF;}
	.st233{fill:url(#SVGID_152_);}
	.st234{fill:#002545;}
	.st235{fill:url(#SVGID_153_);}
	.st236{fill:none;stroke:#00BFFF;stroke-width:2;stroke-linecap:round;stroke-miterlimit:10;stroke-dasharray:1.9938,9.969;}
	.st237{fill:none;stroke:#00BFFF;stroke-linecap:round;stroke-miterlimit:10;stroke-dasharray:1.9993,9.9964;}
	.st238{fill:none;stroke:#00BFFF;stroke-width:1.5;stroke-linecap:round;stroke-miterlimit:10;stroke-dasharray:1.9935,9.9677;}
	.st239{fill:#FA536D;}
	.st240{fill:#FA6A7D;}
	.st241{fill:#D0314D;}
	.st242{fill:#FF7485;}
	.st243{fill:#FF8694;}
	.st244{opacity:0.7;fill:#FFFFFF;}
	.st245{fill:#F9A50D;}
	.st246{fill:#F96F00;}
	.st247{fill:#F9AF0D;}
	.st248{fill:#F98500;}
	.st249{fill:#F9930D;}
	.st250{fill:#F9C30D;}
	.st251{opacity:0.8;fill:#FFFFFF;}
	.st252{opacity:0.3;fill:#01598D;}
	.st253{fill:#01598D;}
	.st254{fill:#CF1C24;}
	.st255{opacity:0.3;fill:none;stroke:#2B90CD;stroke-width:0.1706;stroke-miterlimit:10;}
	.st256{fill:none;stroke:#005AA9;stroke-width:0.9737;stroke-linecap:round;stroke-linejoin:round;stroke-miterlimit:10;}
	.st257{fill:#FFFFFF;stroke:#005AA9;stroke-width:0.9737;stroke-linecap:round;stroke-linejoin:round;stroke-miterlimit:10;}
	.st258{fill:none;stroke:#FFFFFF;stroke-width:0.9737;stroke-linecap:round;stroke-linejoin:round;stroke-miterlimit:10;}
	.st259{fill:#2B90CD;}
	.st260{fill:#CEDDDF;}
	.st261{fill:#EC1C24;stroke:#EDF5D7;stroke-width:0.25;stroke-miterlimit:10;}
	.st262{fill:#F6921E;stroke:#EDF5D7;stroke-width:0.25;stroke-miterlimit:10;}
	.st263{fill:#00BFFF;stroke:#EDF5D7;stroke-width:0.25;stroke-miterlimit:10;}
	.st264{fill:#FFFBE9;}
	.st265{fill:#EFC2C2;}
	.st266{fill:none;stroke:#FFCB78;stroke-width:4;stroke-miterlimit:10;}
	.st267{fill:none;stroke:#FFCB78;stroke-width:3.3333;stroke-miterlimit:10;}
	.st268{fill:none;stroke:#FFCB78;stroke-width:2.6667;stroke-miterlimit:10;}
	.st269{fill:none;stroke:#FFCB78;stroke-width:2;stroke-miterlimit:10;}
	.st270{fill:#225378;}
	.st271{fill:none;stroke:#000000;stroke-width:3;stroke-miterlimit:10;}
	.st272{fill:none;stroke:#A5CD39;stroke-width:0.9727;stroke-linecap:round;stroke-linejoin:round;stroke-miterlimit:10;}
	.st273{fill:#89B138;stroke:#A5CD39;stroke-width:0.9727;stroke-linecap:round;stroke-linejoin:round;stroke-miterlimit:10;}
	.st274{fill:#FFFFFF;stroke:#005AA9;stroke-width:0.9727;stroke-linecap:round;stroke-linejoin:round;stroke-miterlimit:10;}
	.st275{fill:none;stroke:#005AA9;stroke-width:0.9727;stroke-linecap:round;stroke-linejoin:round;stroke-miterlimit:10;}
	.st276{fill:none;stroke:#07294D;stroke-width:0.9118;stroke-miterlimit:10;}
	.st277{fill:none;stroke:#005AA9;stroke-width:0.9671;stroke-linecap:round;stroke-linejoin:round;stroke-miterlimit:10;}
	.st278{clip-path:url(#SVGID_163_);}
	.st279{opacity:0.3;fill:none;stroke:#2B90CD;stroke-width:0.1475;stroke-miterlimit:10;}
	.st280{opacity:0.61;clip-path:url(#SVGID_165_);}
</style>
<g id="Layer_3">
</g>
<g id="Layer_1">
	<g>
		<g>
			<g>
				<g>
					<g>
						<g>
							<polygon class="st155" points="56.8,15.3 30,1.6 3.3,15.3 3.3,44.7 30,58.4 56.8,44.7 							"/>
							<g>
								<polygon class="st155" points="3.3,15.3 16.9,22.3 30,15.6 30,1.6 								"/>
								<polygon class="st155" points="56.8,15.3 43.1,22.3 30,15.6 30,1.6 								"/>
							</g>
							<g>
								<polygon class="st156" points="56.8,44.7 43.1,37.7 30,44.4 30,58.4 								"/>
								<polygon class="st157" points="3.3,44.7 16.9,37.7 30,44.4 30,58.4 								"/>
							</g>
						</g>
						<polygon class="st156" points="3.3,15.3 3.3,44.7 13.3,39.8 13.3,20.2 						"/>
						<polygon class="st22" points="56.7,15.3 30,1.6 3.2,15.3 3.2,44.7 30,58.4 56.7,44.7 						"/>
					</g>
				</g>
			</g>
			<line class="st188" x1="23.9" y1="47.6" x2="23.9" y2="52.7"/>
			<polygon class="st92" points="5.5,39.9 5.5,32.2 9.5,30 9.5,26.2 16.2,22.3 19.3,24.1 22.5,22.3 29.3,26.2 29.3,30 33.2,32.3 
				33.2,39.9 29.3,42.3 29.4,45.5 22.7,49.7 19.3,47.8 16,49.6 9.3,45.4 9.3,42.3 			"/>
			<g class="st71">
				<rect x="24.9" y="1.4" transform="matrix(0.799 -0.6014 0.6014 0.799 3.5118 16.4687)" class="st43" width="3.1" height="3.1"/>
			</g>
			<g class="st71">
				
					<rect x="43.6" y="39.2" transform="matrix(0.799 -0.6014 0.6014 0.799 -15.1433 34.8092)" class="st43" width="1.8" height="1.8"/>
			</g>
			<g class="st71">
				
					<rect x="10" y="11.8" transform="matrix(0.1397 -0.9902 0.9902 0.1397 -3.2268 22.0267)" class="st43" width="2.1" height="2.1"/>
			</g>
			<path id="XMLID_176_" class="st182" d="M44.2,33.7l-11.3-6.5c-0.2-0.1-0.3-0.3-0.3-0.5V13.3l11.6,6.3"/>
			<path id="XMLID_175_" class="st0" d="M44.2,33.7l11.4-6.5c0.1-0.1,0.2-0.2,0.2-0.3V13.3l-11.6,6.3C44.2,19.7,44.2,33.7,44.2,33.7
				z"/>
			<polygon id="XMLID_174_" class="st189" points="32.6,13.3 44.2,7 55.8,13.3 44.2,19.6 			"/>
			<g id="XMLID_171_">
				<path id="XMLID_173_" class="st178" d="M36.5,13.5v-2.6c0,0,2.5,1.5,4.5-0.2v2.7C41,13.5,38.9,15.5,36.5,13.5z"/>
				<ellipse id="XMLID_172_" class="st0" cx="38.7" cy="10.8" rx="2.2" ry="1"/>
			</g>
			<g id="XMLID_168_">
				<path id="XMLID_170_" class="st178" d="M48.4,12.6V10c0,0,2.5,1.5,4.5-0.2v2.7C52.9,12.6,50.8,14.5,48.4,12.6z"/>
				<ellipse id="XMLID_169_" class="st0" cx="50.6" cy="9.9" rx="2.2" ry="1"/>
			</g>
			<g id="XMLID_157_">
				<path id="XMLID_167_" class="st178" d="M42.3,16.4v-2.6c0,0,2.5,1.5,4.5-0.2v2.7C46.7,16.4,44.6,18.4,42.3,16.4z"/>
				<ellipse id="XMLID_158_" class="st0" cx="44.5" cy="13.7" rx="2.2" ry="1"/>
			</g>
			<g id="XMLID_153_">
				<path id="XMLID_156_" class="st178" d="M42,9.8V7.3c0,0,2.5,1.5,4.5-0.2v2.7C46.5,9.8,44.4,11.8,42,9.8z"/>
				<ellipse id="XMLID_155_" class="st0" cx="44.2" cy="7.2" rx="2.2" ry="1"/>
			</g>
			<path class="st93" d="M26.9,31.6L26.9,31.6c-0.3,0-0.5-0.2-0.5-0.5l0,0c0-0.3,0.2-0.5,0.5-0.5h0c0.3,0,0.5,0.2,0.5,0.5l0,0
				C27.4,31.4,27.2,31.6,26.9,31.6z"/>
			<path class="st93" d="M30.4,37.1L30.4,37.1c-0.3,0-0.5-0.2-0.5-0.5l0,0c0-0.3,0.2-0.5,0.5-0.5h0c0.3,0,0.5,0.2,0.5,0.5l0,0
				C31,36.8,30.7,37.1,30.4,37.1z"/>
			<path class="st93" d="M21.5,37.1L21.5,37.1c-0.3,0-0.5-0.2-0.5-0.5v0c0-0.3,0.2-0.5,0.5-0.5h0c0.3,0,0.5,0.2,0.5,0.5v0
				C22,36.8,21.7,37.1,21.5,37.1z"/>
			<path class="st93" d="M27.1,42L27.1,42c-0.3,0-0.5-0.2-0.5-0.5l0,0c0-0.3,0.2-0.5,0.5-0.5h0c0.3,0,0.5,0.2,0.5,0.5l0,0
				C27.6,41.7,27.4,42,27.1,42z"/>
			<line class="st190" x1="28.2" y1="30.3" x2="26.9" y2="31.1"/>
			<line class="st190" x1="31.9" y1="36.6" x2="30.5" y2="36.6"/>
			<line class="st190" x1="28.3" y1="42" x2="27.1" y2="41.5"/>
			<line class="st190" x1="19.1" y1="36.6" x2="21.5" y2="36.6"/>
			<line class="st188" x1="14.6" y1="47.6" x2="14.6" y2="52.3"/>
			<path class="st18" d="M16,49.6l-6.7-4.2v-3.2l-3.8-2.5v-7.7L9.5,30v-3.8l6.7-3.9l3.1,1.8l3.2-1.8l6.6,3.8
				C29.1,26.1,15.1,29.1,16,49.6z"/>
			<polyline class="st190" points="13.9,28 15.2,29 15.2,32.8 12.3,34.7 12.3,38.3 15.2,39.9 15.2,43.9 14.6,44.7 			"/>
			<path class="st93" d="M13.8,28.5L13.8,28.5c0.3,0,0.5-0.2,0.5-0.5v0c0-0.3-0.2-0.5-0.5-0.5h0c-0.3,0-0.5,0.2-0.5,0.5v0
				C13.2,28.3,13.5,28.5,13.8,28.5z"/>
			<path class="st93" d="M14.3,45.5L14.3,45.5c0.3,0,0.5-0.2,0.5-0.5v0c0-0.3-0.2-0.5-0.5-0.5h0c-0.3,0-0.5,0.2-0.5,0.5v0
				C13.7,45.3,14,45.5,14.3,45.5z"/>
			<path class="st93" d="M11.3,31.6L11.3,31.6c0.3,0,0.5-0.2,0.5-0.5v0c0-0.3-0.2-0.5-0.5-0.5h0c-0.3,0-0.5,0.2-0.5,0.5v0
				C10.7,31.4,11,31.6,11.3,31.6z"/>
			<path class="st93" d="M7.7,37.1L7.7,37.1c0.3,0,0.5-0.2,0.5-0.5l0,0c0-0.3-0.2-0.5-0.5-0.5h0c-0.3,0-0.5,0.2-0.5,0.5l0,0
				C7.2,36.9,7.4,37.1,7.7,37.1z"/>
			<path class="st93" d="M11.1,42L11.1,42c0.3,0,0.5-0.2,0.5-0.5v0c0-0.3-0.2-0.5-0.5-0.5h0c-0.3,0-0.5,0.2-0.5,0.5v0
				C10.5,41.8,10.8,42,11.1,42z"/>
			<line class="st190" x1="10.2" y1="30.5" x2="11.2" y2="31.1"/>
			<line class="st190" x1="6.4" y1="36.6" x2="7.7" y2="36.6"/>
			<line class="st190" x1="10.1" y1="41.9" x2="11" y2="41.5"/>
			<line class="st190" x1="19.1" y1="25.9" x2="19.1" y2="45.4"/>
			<line class="st190" x1="19" y1="36.6" x2="16.6" y2="36.6"/>
			<path class="st93" d="M16.7,37.1L16.7,37.1c0.3,0,0.5-0.2,0.5-0.5v0c0-0.3-0.2-0.5-0.5-0.5l0,0c-0.3,0-0.5,0.2-0.5,0.5v0
				C16.2,36.8,16.4,37.1,16.7,37.1z"/>
			<polyline class="st190" points="24.2,28 22.9,29 22.9,32.8 25.8,34.6 25.8,38.3 22.9,39.8 22.9,43.9 23.5,44.6 			"/>
			<path class="st93" d="M24.4,28.5L24.4,28.5c-0.3,0-0.5-0.2-0.5-0.5v0c0-0.3,0.2-0.5,0.5-0.5h0c0.3,0,0.5,0.2,0.5,0.5v0
				C24.9,28.3,24.6,28.5,24.4,28.5z"/>
			<path class="st93" d="M23.9,45.5L23.9,45.5c-0.3,0-0.5-0.2-0.5-0.5l0,0c0-0.3,0.2-0.5,0.5-0.5h0c0.3,0,0.5,0.2,0.5,0.5l0,0
				C24.4,45.3,24.2,45.5,23.9,45.5z"/>
			<path class="st191" d="M54.7,13.9l-0.4,6.9c0,3.4-1.9,6.6-4.9,8.2l-5.1,3.4l0,1.4l11.4-6.5c0.1-0.1,0.2-0.2,0.2-0.3V13.3
				L54.7,13.9z"/>
			<g>
				<rect x="15.8" y="55.9" class="st44" width="6.7" height="2.7"/>
				<rect x="13.7" y="52.3" class="st44" width="10.8" height="3.7"/>
				<rect x="15.8" y="55.9" class="st192" width="6.7" height="0.9"/>
				<rect x="13.8" y="52.3" class="st192" width="10.8" height="0.9"/>
			</g>
		</g>
	</g>
</g>
<g id="Layer_2">
</g>
</svg>
