<svg xmlns="http://www.w3.org/2000/svg" xmlns:xlink="http://www.w3.org/1999/xlink" id="Layer_1" x="0px" y="0px" viewBox="0 0 100 100" style="enable-background:new 0 0 100 100;" xml:space="preserve"><style type="text/css">	.st0{clip-path:url(#SVGID_2_);}	.st1{clip-path:url(#SVGID_4_);}	.st2{fill:#C01C24;}	.st3{fill:#E2F3F7;}	.st4{fill:#241D4F;}	.st5{opacity:0.1;enable-background:new    ;}</style><g>	<defs>		<circle id="SVGID_1_" cx="50" cy="50.1" r="49.9"></circle>	</defs>	<clipPath id="SVGID_2_">		<use xlink:href="#SVGID_1_" style="overflow:visible;"></use>	</clipPath>	<g class="st0">		<g>			<defs>				<path id="SVGID_3_" d="M118.6,101H-18.6c-4.2,0-7.9-3.5-7.9-7.9V6.9c0-4.2,3.5-7.9,7.9-7.9h137.2c4.2,0,7.9,3.5,7.9,7.9v86.4     C126.5,97.5,122.8,101,118.6,101z"></path>			</defs>			<clipPath id="SVGID_4_">				<use xlink:href="#SVGID_3_" style="overflow:visible;"></use>			</clipPath>			<g class="st1">				<rect id="_x33__2_" x="-28.7" y="-2.4" class="st2" width="159.7" height="106.5"></rect>				<rect id="_x32__5_" x="-28.7" y="15.4" class="st3" width="159.7" height="70.9"></rect>				<rect id="_x31__8_" x="-28.7" y="33.2" class="st4" width="159.7" height="35.6"></rect>			</g>		</g>	</g></g><path class="st5" d="M62.7,1.7C58.6,0.7,50,0.1,50,0.1s14.1,25.1,13.7,49.3C63.2,75.2,50,100.1,50,100.1s9.9-0.2,17.3-3.1 C86.9,89.4,100,71.6,100,50.1C100,26.9,84.2,7.3,62.7,1.7z"></path></svg>