<svg xmlns="http://www.w3.org/2000/svg" xmlns:xlink="http://www.w3.org/1999/xlink" id="Layer_1" x="0px" y="0px" viewBox="0 0 100 100" style="enable-background:new 0 0 100 100;" xml:space="preserve"><style type="text/css">	.st0{clip-path:url(#SVGID_2_);}	.st1{clip-path:url(#SVGID_4_);}	.st2{fill:#008349;}	.st3{fill:#FFFFFF;}	.st4{fill:#B31126;}	.st5{opacity:0.1;enable-background:new    ;}</style><g>	<defs>		<circle id="SVGID_1_" cx="50" cy="50.1" r="49.9"></circle>	</defs>	<clipPath id="SVGID_2_">		<use xlink:href="#SVGID_1_" style="overflow:visible;"></use>	</clipPath>	<g class="st0">		<g>			<defs>				<path id="SVGID_3_" d="M133.9,100.5H-2.2c-4.2,0-7.7-3.5-7.7-7.7V7.2c0-4.2,3.5-7.7,7.7-7.7h136.1c4.2,0,7.7,3.5,7.7,7.7v85.6     C141.6,97,138.1,100.5,133.9,100.5z"></path>			</defs>			<clipPath id="SVGID_4_">				<use xlink:href="#SVGID_3_" style="overflow:visible;"></use>			</clipPath>			<g class="st1">				<rect id="_x34__2_" x="-12.5" y="-3.3" class="st2" width="213.3" height="35.6"></rect>				<rect id="_x33__1_" x="-12.5" y="32.3" class="st3" width="213.3" height="35.6"></rect>				<rect id="_x32__1_" x="-12.5" y="68" width="213.3" height="35.6"></rect>				<rect id="_x31__3_" x="-12.5" y="-3.3" class="st4" width="53.3" height="106.7"></rect>			</g>		</g>	</g></g><path class="st5" d="M62.7,1.7C58.6,0.7,50,0.1,50,0.1s14.1,25.1,13.7,49.3C63.2,75.2,50,100.1,50,100.1s9.9-0.2,17.3-3.1 C86.9,89.4,100,71.6,100,50.1C100,26.9,84.2,7.3,62.7,1.7z"></path></svg>