<?xml version="1.0" encoding="utf-8"?>
<!-- Generator: Adobe Illustrator 22.0.0, SVG Export Plug-In . SVG Version: 6.00 Build 0)  -->
<svg version="1.1" xmlns="http://www.w3.org/2000/svg" xmlns:xlink="http://www.w3.org/1999/xlink" x="0px" y="0px"
	 viewBox="0 0 100 100" style="enable-background:new 0 0 100 100;" xml:space="preserve">
<style type="text/css">
	.st0{fill:#E1F4FD;}
	.st1{fill:#FFFFFF;}
	.st2{fill:#07294D;}
	.st3{fill:#A5CD39;}
	.st4{fill:#EC1C24;}
	.st5{fill:#F6921E;}
	.st6{fill:#00BFFF;}
	.st7{fill:#005AA9;}
	.st8{opacity:0.1;fill:#00BFFF;}
	.st9{opacity:0.15;fill:#A5CD39;}
	.st10{opacity:0.1;fill:#6E6D79;}
	.st11{opacity:0.1;fill:#39BBEC;}
	.st12{opacity:0.1;fill:#F6921E;}
	.st13{fill:#F3F3F4;}
	.st14{fill:#6E6D79;}
	.st15{fill:none;stroke:#6E6D79;stroke-width:0.8288;stroke-miterlimit:10;}
	.st16{opacity:0.1;fill:none;stroke:#231F20;stroke-miterlimit:10;}
	.st17{clip-path:url(#SVGID_2_);fill:#00BFFF;}
	.st18{opacity:0.1;fill:#E51D27;}
	.st19{opacity:0.1;fill:#EC1C24;}
	.st20{opacity:0.1;}
	.st21{fill:none;stroke:#00BFFF;stroke-width:1.0547;stroke-miterlimit:10;}
	.st22{opacity:0.2;}
	.st23{fill:none;stroke:#00BFFF;stroke-miterlimit:10;}
	.st24{fill:none;stroke:#6E6D79;stroke-miterlimit:10;}
	.st25{fill:#00A2E2;}
	.st26{opacity:0.6;}
	.st27{opacity:0.6;fill:#185BA8;}
	.st28{opacity:0.4;fill:#FFFFFF;}
	.st29{fill:none;stroke:#FFFFFF;stroke-width:0.4908;stroke-miterlimit:10;}
	.st30{clip-path:url(#SVGID_66_);fill:#00BFFF;}
	.st31{opacity:0.4;}
	.st32{clip-path:url(#SVGID_140_);fill:#00BFFF;}
	.st33{opacity:0.57;}
	.st34{opacity:0.2;fill:#EC1C24;}
	.st35{opacity:0.2;fill:#F6921E;}
	.st36{opacity:0.2;fill:#A5CD39;}
	.st37{opacity:0.2;fill:#005AA9;}
	.st38{fill:#F6921E;stroke:#F6921E;stroke-width:1.0389;stroke-miterlimit:10;}
	.st39{fill:#EC1C24;stroke:#EC1C24;stroke-width:1.0389;stroke-miterlimit:10;}
	.st40{fill:#A5CD39;stroke:#A5CD39;stroke-width:1.0389;stroke-miterlimit:10;}
	.st41{fill:#003D6B;}
	.st42{fill:none;stroke:#003D6B;stroke-width:2;stroke-miterlimit:10;}
	.st43{fill:#D10F1E;}
	.st44{fill:none;stroke:#005AA9;stroke-width:1.9302;stroke-miterlimit:10;}
</style>
<g id="Layer_1">
</g>
<g id="Layer_2">
	<g>
		<path class="st7" d="M85.8,66.6l-17.1,4.8v0.1c0.4,1.7,0.2,3.6-0.7,5.1c-0.9,1.7-2.4,2.8-4.3,3.4c-1.8,0.5-3.7,0.3-5.4-0.6
			l-9.9-5.5l0.9-1.7l9.9,5.5c1.2,0.7,2.6,0.8,3.9,0.4c1.3-0.4,2.4-1.2,3.1-2.5c0.4-0.6,0.5-1.3,0.6-2c0.3-1.7-0.5-3.5-2-4.3L41,56
			c0,0-2.5-1.7-5.9-0.7c0,0,0,0-0.1,0C34.4,55.4,8.8,62.7,7.7,63H7.6l5.2,18.4L30,76.5c1.8,1.1,14.8,9.1,16.4,10.1
			c2.9,1.7,6.5,0.8,7.3,0.5c0.1,0,35-9.9,35-9.9c2.4-0.7,4.4-3.9,3.5-7.2C91.5,67.5,88.6,65.8,85.8,66.6z"/>
		<g>
			<g>
				<path class="st38" d="M54,21.2v5.4h5.2c0.6,0,1.2,0.5,1.2,1.2v0c0,0.6-0.5,1.2-1.2,1.2H54v5.3c0,0.6-0.5,1.2-1.2,1.2h-0.2
					c-0.6,0-1.2-0.5-1.2-1.2v-5.3h-5.2c-0.6,0-1.2-0.5-1.2-1.2v0c0-0.6,0.5-1.2,1.2-1.2h5.2v-5.4c0-0.6,0.5-1.2,1.2-1.2h0.2
					C53.5,20,54,20.5,54,21.2z"/>
			</g>
			<g>
				<path class="st39" d="M81.5,13.3v4.1h4c0.5,0,0.9,0.4,0.9,0.9v0c0,0.5-0.4,0.9-0.9,0.9h-4v4c0,0.5-0.4,0.9-0.9,0.9h-0.2
					c-0.5,0-0.9-0.4-0.9-0.9v-4h-4c-0.5,0-0.9-0.4-0.9-0.9v0c0-0.5,0.4-0.9,0.9-0.9h4v-4.1c0-0.5,0.4-0.9,0.9-0.9h0.2
					C81.2,12.4,81.5,12.8,81.5,13.3z"/>
			</g>
			<g>
				<path class="st40" d="M73.9,34.6v7.3h7.1c0.9,0,1.6,0.7,1.6,1.6v0c0,0.9-0.7,1.6-1.6,1.6h-7.1v7.3c0,0.9-0.7,1.6-1.6,1.6H72
					c-0.9,0-1.6-0.7-1.6-1.6v-7.3h-7.1c-0.9,0-1.6-0.7-1.6-1.6v0c0-0.9,0.7-1.6,1.6-1.6h7.1v-7.3c0-0.9,0.7-1.6,1.6-1.6h0.3
					C73.2,33.1,73.9,33.8,73.9,34.6z"/>
			</g>
		</g>
	</g>
</g>
</svg>
