<?xml version="1.0" encoding="utf-8"?>
<!-- Generator: Adobe Illustrator 22.1.0, SVG Export Plug-In . SVG Version: 6.00 Build 0)  -->
<svg version="1.1" id="Layer_1" xmlns="http://www.w3.org/2000/svg" xmlns:xlink="http://www.w3.org/1999/xlink" x="0px" y="0px"
	 viewBox="0 0 100 100" style="enable-background:new 0 0 100 100;" xml:space="preserve">
<style type="text/css">
	.st0{fill:url(#SVGID_1_);}
	.st1{fill:url(#SVGID_2_);}
	.st2{fill:url(#SVGID_3_);}
</style>
<g>
	<radialGradient id="SVGID_1_" cx="30.8918" cy="101.4064" r="104.2119" gradientUnits="userSpaceOnUse">
		<stop  offset="0.2194" style="stop-color:#E8E7E7"/>
		<stop  offset="0.8827" style="stop-color:#FCFCFC"/>
	</radialGradient>
	<path class="st0" d="M50,1.3C23.4,1.3,1.8,22.9,1.8,49.5c0,9,2.5,17.4,6.8,24.6L2.5,98.7l24.2-7c6.9,3.8,14.9,6,23.4,6
		c26.6,0,48.2-21.6,48.2-48.2C98.2,22.9,76.6,1.3,50,1.3z"/>
	<radialGradient id="SVGID_2_" cx="25.7506" cy="100.7433" r="98.2261" gradientUnits="userSpaceOnUse">
		<stop  offset="0.1786" style="stop-color:#3DB54A"/>
		<stop  offset="0.7602" style="stop-color:#63BD65"/>
	</radialGradient>
	<path class="st1" d="M50.5,9.7c-22.1,0-40,17.9-40,40c0,8.5,2.6,16.3,7.1,22.8l-3.5,14.2l13.8-4c6.4,4.4,14.3,7,22.7,7
		c22.1,0,40-17.9,40-40C90.6,27.6,72.7,9.7,50.5,9.7z"/>
	<radialGradient id="SVGID_3_" cx="31.9928" cy="79.5757" r="46.6184" gradientUnits="userSpaceOnUse">
		<stop  offset="0.2194" style="stop-color:#E8E7E7"/>
		<stop  offset="0.8827" style="stop-color:#FFFFFF"/>
	</radialGradient>
	<path class="st2" d="M37.8,45.7c0.6-0.6,1.1-1.3,1.7-1.9c0.9-1.1,2.3-2.1,2.4-3.7c0.1-1.5-0.5-3-1-4.4c-0.3-0.9-0.7-1.8-1-2.6
		c-0.6-1.6-1.4-3.8-2.3-4.8c-1.2-1.3-3.3-1.5-4.9-0.8c0,0-9.5,4.6-6.6,13.6c0,0,5.6,25.7,34,30.9c0,0,10.2,1.5,12.9-4.7
		c0.6-1.3,1-3.2,0.9-4.7c-0.1-1.4-1.1-2.3-2.3-3c-1.5-0.9-2.8-1.7-4.5-2.5c-1.5-0.7-3.2-1.8-4.9-1.3c-1.2,0.3-2.1,1.5-3,2.4
		c-1.1,1.2-2.2,2.3-3.3,3.5C56,61.7,41.6,56.5,37.8,45.7z"/>
</g>
</svg>
